solid OpenSCAD_Model
  facet normal 0.866025 0.5 0
    outer loop
      vertex 47.5 0 18
      vertex 23.75 41.1362 0
      vertex 23.75 41.1362 18
    endloop
  endfacet
  facet normal 0.866025 0.5 0
    outer loop
      vertex 23.75 41.1362 0
      vertex 47.5 0 18
      vertex 47.5 0 0
    endloop
  endfacet
  facet normal -0.866025 0.5 0
    outer loop
      vertex -47.5 0 0
      vertex -23.75 41.1362 18
      vertex -23.75 41.1362 0
    endloop
  endfacet
  facet normal -0.866025 0.5 0
    outer loop
      vertex -23.75 41.1362 18
      vertex -47.5 0 0
      vertex -47.5 0 18
    endloop
  endfacet
  facet normal 0 1 0
    outer loop
      vertex 23.75 41.1362 18
      vertex 6 41.1362 10
      vertex 6 41.1362 18
    endloop
  endfacet
  facet normal 0 1 0
    outer loop
      vertex 6 41.1362 10
      vertex 23.75 41.1362 0
      vertex -6 41.1362 10
    endloop
  endfacet
  facet normal 0 1 -0
    outer loop
      vertex 23.75 41.1362 0
      vertex 6 41.1362 10
      vertex 23.75 41.1362 18
    endloop
  endfacet
  facet normal 0 1 -0
    outer loop
      vertex -6 41.1362 10
      vertex -23.75 41.1362 18
      vertex -6 41.1362 18
    endloop
  endfacet
  facet normal 0 1 0
    outer loop
      vertex -6 41.1362 10
      vertex -23.75 41.1362 0
      vertex -23.75 41.1362 18
    endloop
  endfacet
  facet normal 0 1 0
    outer loop
      vertex -23.75 41.1362 0
      vertex -6 41.1362 10
      vertex 23.75 41.1362 0
    endloop
  endfacet
  facet normal 0 0 1
    outer loop
      vertex -6 41.1362 18
      vertex -22.5 38.9711 18
      vertex -6 38.9711 18
    endloop
  endfacet
  facet normal -0 0 1
    outer loop
      vertex -23.75 41.1362 18
      vertex -22.5 38.9711 18
      vertex -6 41.1362 18
    endloop
  endfacet
  facet normal 0 0 1
    outer loop
      vertex -23.75 41.1362 18
      vertex -45 0 18
      vertex -22.5 38.9711 18
    endloop
  endfacet
  facet normal 0 -0 1
    outer loop
      vertex -45 0 18
      vertex -23.75 41.1362 18
      vertex -47.5 0 18
    endloop
  endfacet
  facet normal 0 0 1
    outer loop
      vertex 23.75 41.1362 18
      vertex 45 0 18
      vertex 47.5 0 18
    endloop
  endfacet
  facet normal 0 0 1
    outer loop
      vertex 23.75 41.1362 18
      vertex 22.5 38.9711 18
      vertex 45 0 18
    endloop
  endfacet
  facet normal -0 0 1
    outer loop
      vertex 6 41.1362 18
      vertex 22.5 38.9711 18
      vertex 23.75 41.1362 18
    endloop
  endfacet
  facet normal 0 0 1
    outer loop
      vertex 22.5 38.9711 18
      vertex 6 41.1362 18
      vertex 6 38.9711 18
    endloop
  endfacet
  facet normal -0 0 1
    outer loop
      vertex 45 0 18
      vertex 23.75 -41.1362 18
      vertex 47.5 0 18
    endloop
  endfacet
  facet normal -0 0 1
    outer loop
      vertex 22.5 -38.9711 18
      vertex 23.75 -41.1362 18
      vertex 45 0 18
    endloop
  endfacet
  facet normal -0 0 1
    outer loop
      vertex -22.5 -38.9711 18
      vertex 23.75 -41.1362 18
      vertex 22.5 -38.9711 18
    endloop
  endfacet
  facet normal 0 0 1
    outer loop
      vertex -22.5 -38.9711 18
      vertex -23.75 -41.1362 18
      vertex 23.75 -41.1362 18
    endloop
  endfacet
  facet normal 0 0 1
    outer loop
      vertex -45 0 18
      vertex -23.75 -41.1362 18
      vertex -22.5 -38.9711 18
    endloop
  endfacet
  facet normal 0 0 1
    outer loop
      vertex -23.75 -41.1362 18
      vertex -45 0 18
      vertex -47.5 0 18
    endloop
  endfacet
  facet normal 0.866025 -0.5 0
    outer loop
      vertex 23.75 -41.1362 18
      vertex 47.5 0 0
      vertex 47.5 0 18
    endloop
  endfacet
  facet normal 0.866025 -0.5 0
    outer loop
      vertex 47.5 0 0
      vertex 23.75 -41.1362 18
      vertex 23.75 -41.1362 0
    endloop
  endfacet
  facet normal 0 0 -1
    outer loop
      vertex -7.5 -22 0
      vertex -17 -22 0
      vertex -7.5 -17 0
    endloop
  endfacet
  facet normal 0 0 -1
    outer loop
      vertex 17 -22 0
      vertex 47.5 0 0
      vertex 23.75 -41.1362 0
    endloop
  endfacet
  facet normal 0 0 -1
    outer loop
      vertex 17 -22 0
      vertex 23.75 -41.1362 0
      vertex 17 -28 0
    endloop
  endfacet
  facet normal 0 0 -1
    outer loop
      vertex 23.75 -41.1362 0
      vertex -17 -28 0
      vertex 17 -28 0
    endloop
  endfacet
  facet normal -0 0 -1
    outer loop
      vertex -17 -28 0
      vertex -23.75 -41.1362 0
      vertex -17 -22 0
    endloop
  endfacet
  facet normal 0 0 -1
    outer loop
      vertex -23.75 -41.1362 0
      vertex -17 -28 0
      vertex 23.75 -41.1362 0
    endloop
  endfacet
  facet normal 0 0 -1
    outer loop
      vertex 7.5 -17 0
      vertex 47.5 0 0
      vertex 17 -22 0
    endloop
  endfacet
  facet normal 0 0 -1
    outer loop
      vertex 7.5 -17 0
      vertex 17 -22 0
      vertex 7.5 -22 0
    endloop
  endfacet
  facet normal -0 0 -1
    outer loop
      vertex 47.5 0 0
      vertex 7.5 -17 0
      vertex 23.75 41.1362 0
    endloop
  endfacet
  facet normal 0 0 -1
    outer loop
      vertex -7.5 -17 0
      vertex 23.75 41.1362 0
      vertex 7.5 -17 0
    endloop
  endfacet
  facet normal 0 0 -1
    outer loop
      vertex -47.5 0 0
      vertex -7.5 -17 0
      vertex -17 -22 0
    endloop
  endfacet
  facet normal 0 0 -1
    outer loop
      vertex -7.5 -17 0
      vertex -23.75 41.1362 0
      vertex 23.75 41.1362 0
    endloop
  endfacet
  facet normal 0 0 -1
    outer loop
      vertex -47.5 0 0
      vertex -17 -22 0
      vertex -23.75 -41.1362 0
    endloop
  endfacet
  facet normal 0 0 -1
    outer loop
      vertex -7.5 -17 0
      vertex -47.5 0 0
      vertex -23.75 41.1362 0
    endloop
  endfacet
  facet normal 0 -1 0
    outer loop
      vertex -23.75 -41.1362 0
      vertex 23.75 -41.1362 18
      vertex -23.75 -41.1362 18
    endloop
  endfacet
  facet normal 0 -1 -0
    outer loop
      vertex 23.75 -41.1362 18
      vertex -23.75 -41.1362 0
      vertex 23.75 -41.1362 0
    endloop
  endfacet
  facet normal -0.866025 -0.5 0
    outer loop
      vertex -23.75 -41.1362 0
      vertex -47.5 0 18
      vertex -47.5 0 0
    endloop
  endfacet
  facet normal -0.866025 -0.5 0
    outer loop
      vertex -47.5 0 18
      vertex -23.75 -41.1362 0
      vertex -23.75 -41.1362 18
    endloop
  endfacet
  facet normal -0.866025 -0.5 0
    outer loop
      vertex 45 0 2
      vertex 22.5 38.9711 18
      vertex 22.5 38.9711 2
    endloop
  endfacet
  facet normal -0.866025 -0.5 0
    outer loop
      vertex 22.5 38.9711 18
      vertex 45 0 2
      vertex 45 0 18
    endloop
  endfacet
  facet normal 0.866025 -0.5 0
    outer loop
      vertex -45 0 18
      vertex -22.5 38.9711 2
      vertex -22.5 38.9711 18
    endloop
  endfacet
  facet normal 0.866025 -0.5 0
    outer loop
      vertex -22.5 38.9711 2
      vertex -45 0 18
      vertex -45 0 2
    endloop
  endfacet
  facet normal 0 -1 0
    outer loop
      vertex -22.5 38.9711 18
      vertex -6 38.9711 10
      vertex -6 38.9711 18
    endloop
  endfacet
  facet normal 0 -1 -0
    outer loop
      vertex -6 38.9711 10
      vertex -22.5 38.9711 2
      vertex 6 38.9711 10
    endloop
  endfacet
  facet normal 0 -1 0
    outer loop
      vertex -22.5 38.9711 2
      vertex -6 38.9711 10
      vertex -22.5 38.9711 18
    endloop
  endfacet
  facet normal 0 -1 0
    outer loop
      vertex 6 38.9711 10
      vertex 22.5 38.9711 18
      vertex 6 38.9711 18
    endloop
  endfacet
  facet normal 0 -1 0
    outer loop
      vertex 6 38.9711 10
      vertex 22.5 38.9711 2
      vertex 22.5 38.9711 18
    endloop
  endfacet
  facet normal 0 -1 0
    outer loop
      vertex 22.5 38.9711 2
      vertex 6 38.9711 10
      vertex -22.5 38.9711 2
    endloop
  endfacet
  facet normal -0.866025 0.5 0
    outer loop
      vertex 22.5 -38.9711 2
      vertex 45 0 18
      vertex 45 0 2
    endloop
  endfacet
  facet normal -0.866025 0.5 0
    outer loop
      vertex 45 0 18
      vertex 22.5 -38.9711 2
      vertex 22.5 -38.9711 18
    endloop
  endfacet
  facet normal 0 0 1
    outer loop
      vertex -16.5729 14.2366 2
      vertex 16.5729 14.2366 2
      vertex -16.2594 14.7798 2
    endloop
  endfacet
  facet normal 0 0 1
    outer loop
      vertex -7.5 -17 2
      vertex -16.0656 -15.3763 2
      vertex -16 -16 2
    endloop
  endfacet
  facet normal 0 0 1
    outer loop
      vertex 16.5729 14.2366 2
      vertex -16.5729 14.2366 2
      vertex -7.5 -17 2
    endloop
  endfacet
  facet normal 0 0 1
    outer loop
      vertex -7.5 -17 2
      vertex -16.2594 -14.7798 2
      vertex -16.0656 -15.3763 2
    endloop
  endfacet
  facet normal -0 0 1
    outer loop
      vertex -16.9926 13.7706 2
      vertex -7.5 -17 2
      vertex -16.5729 14.2366 2
    endloop
  endfacet
  facet normal 0 0 1
    outer loop
      vertex -7.5 -17 2
      vertex -16.5729 -14.2366 2
      vertex -16.2594 -14.7798 2
    endloop
  endfacet
  facet normal -0 0 1
    outer loop
      vertex -16.9926 -13.7706 2
      vertex -7.5 -17 2
      vertex -16.9926 13.7706 2
    endloop
  endfacet
  facet normal 0 0 1
    outer loop
      vertex -7.5 -17 2
      vertex -16.9926 -13.7706 2
      vertex -16.5729 -14.2366 2
    endloop
  endfacet
  facet normal -0 0 1
    outer loop
      vertex -17.5 13.4019 2
      vertex -16.9926 -13.7706 2
      vertex -16.9926 13.7706 2
    endloop
  endfacet
  facet normal 0 0 1
    outer loop
      vertex -17.5 13.4019 2
      vertex -17.5 -13.4019 2
      vertex -16.9926 -13.7706 2
    endloop
  endfacet
  facet normal -0 0 1
    outer loop
      vertex -18.0729 13.1468 2
      vertex -17.5 -13.4019 2
      vertex -17.5 13.4019 2
    endloop
  endfacet
  facet normal 0 0 1
    outer loop
      vertex -18.0729 13.1468 2
      vertex -18.0729 -13.1468 2
      vertex -17.5 -13.4019 2
    endloop
  endfacet
  facet normal -0 0 1
    outer loop
      vertex -18.6864 13.0164 2
      vertex -18.0729 -13.1468 2
      vertex -18.0729 13.1468 2
    endloop
  endfacet
  facet normal 0 0 1
    outer loop
      vertex -18.6864 13.0164 2
      vertex -18.6864 -13.0164 2
      vertex -18.0729 -13.1468 2
    endloop
  endfacet
  facet normal -0 0 1
    outer loop
      vertex -19.3136 13.0164 2
      vertex -18.6864 -13.0164 2
      vertex -18.6864 13.0164 2
    endloop
  endfacet
  facet normal 0 0 1
    outer loop
      vertex -19.3136 13.0164 2
      vertex -19.3136 -13.0164 2
      vertex -18.6864 -13.0164 2
    endloop
  endfacet
  facet normal 0 0 1
    outer loop
      vertex -19.9271 13.1468 2
      vertex -19.3136 -13.0164 2
      vertex -19.3136 13.0164 2
    endloop
  endfacet
  facet normal 0 0 1
    outer loop
      vertex -19.9271 13.1468 2
      vertex -19.9271 -13.1468 2
      vertex -19.3136 -13.0164 2
    endloop
  endfacet
  facet normal 0 0 1
    outer loop
      vertex -20.5 13.4019 2
      vertex -19.9271 -13.1468 2
      vertex -19.9271 13.1468 2
    endloop
  endfacet
  facet normal 0 0 1
    outer loop
      vertex -20.5 13.4019 2
      vertex -20.5 -13.4019 2
      vertex -19.9271 -13.1468 2
    endloop
  endfacet
  facet normal 0 0 1
    outer loop
      vertex -45 0 2
      vertex -20.5 13.4019 2
      vertex -21.0074 13.7706 2
    endloop
  endfacet
  facet normal 0 0 1
    outer loop
      vertex -20.5 13.4019 2
      vertex -45 0 2
      vertex -20.5 -13.4019 2
    endloop
  endfacet
  facet normal 0 0 1
    outer loop
      vertex -45 0 2
      vertex -21.0074 13.7706 2
      vertex -21.4271 14.2366 2
    endloop
  endfacet
  facet normal 0 0 1
    outer loop
      vertex -20.5 -13.4019 2
      vertex -45 0 2
      vertex -21.0074 -13.7706 2
    endloop
  endfacet
  facet normal 0 0 1
    outer loop
      vertex -45 0 2
      vertex -21.4271 14.2366 2
      vertex -21.7406 14.7798 2
    endloop
  endfacet
  facet normal 0 0 1
    outer loop
      vertex -21.0074 -13.7706 2
      vertex -45 0 2
      vertex -21.4271 -14.2366 2
    endloop
  endfacet
  facet normal 0 0 1
    outer loop
      vertex -45 0 2
      vertex -21.7406 14.7798 2
      vertex -21.9344 15.3763 2
    endloop
  endfacet
  facet normal 0 0 1
    outer loop
      vertex -21.4271 -14.2366 2
      vertex -45 0 2
      vertex -21.7406 -14.7798 2
    endloop
  endfacet
  facet normal 0 0 1
    outer loop
      vertex -45 0 2
      vertex -21.9344 15.3763 2
      vertex -22 16 2
    endloop
  endfacet
  facet normal 0 0 1
    outer loop
      vertex -21.7406 -14.7798 2
      vertex -45 0 2
      vertex -21.9344 -15.3763 2
    endloop
  endfacet
  facet normal 0 0 1
    outer loop
      vertex 16.9926 -18.2294 2
      vertex 17 -22 2
      vertex 17.5 -18.5981 2
    endloop
  endfacet
  facet normal 0 0 1
    outer loop
      vertex 16.5729 -17.7634 2
      vertex 17 -22 2
      vertex 16.9926 -18.2294 2
    endloop
  endfacet
  facet normal 0 0 1
    outer loop
      vertex 7.5 -22 2
      vertex 16.5729 -17.7634 2
      vertex 16.2594 -17.2202 2
    endloop
  endfacet
  facet normal -0 0 1
    outer loop
      vertex 7.5 -17 2
      vertex 16.2594 -17.2202 2
      vertex 16.0656 -16.6237 2
    endloop
  endfacet
  facet normal 0 0 1
    outer loop
      vertex 7.5 -17 2
      vertex 16.0656 -16.6237 2
      vertex 16 -16 2
    endloop
  endfacet
  facet normal 0 0 1
    outer loop
      vertex 16.2594 -17.2202 2
      vertex 7.5 -17 2
      vertex 7.5 -22 2
    endloop
  endfacet
  facet normal 0 0 1
    outer loop
      vertex 16.5729 -17.7634 2
      vertex 7.5 -22 2
      vertex 17 -22 2
    endloop
  endfacet
  facet normal -0 0 1
    outer loop
      vertex 21.7406 14.7798 2
      vertex 45 0 2
      vertex 21.9344 15.3763 2
    endloop
  endfacet
  facet normal 0 0 1
    outer loop
      vertex 45 0 2
      vertex 21.9344 -15.3763 2
      vertex 22 -16 2
    endloop
  endfacet
  facet normal -0 0 1
    outer loop
      vertex 21.4271 14.2366 2
      vertex 45 0 2
      vertex 21.7406 14.7798 2
    endloop
  endfacet
  facet normal 0 0 1
    outer loop
      vertex 45 0 2
      vertex 21.7406 -14.7798 2
      vertex 21.9344 -15.3763 2
    endloop
  endfacet
  facet normal -0 0 1
    outer loop
      vertex 21.0074 13.7706 2
      vertex 45 0 2
      vertex 21.4271 14.2366 2
    endloop
  endfacet
  facet normal 0 0 1
    outer loop
      vertex 45 0 2
      vertex 21.4271 -14.2366 2
      vertex 21.7406 -14.7798 2
    endloop
  endfacet
  facet normal -0 0 1
    outer loop
      vertex 20.5 13.4019 2
      vertex 45 0 2
      vertex 21.0074 13.7706 2
    endloop
  endfacet
  facet normal 0 0 1
    outer loop
      vertex 45 0 2
      vertex 21.0074 -13.7706 2
      vertex 21.4271 -14.2366 2
    endloop
  endfacet
  facet normal 0 0 1
    outer loop
      vertex 20.5 -13.4019 2
      vertex 45 0 2
      vertex 20.5 13.4019 2
    endloop
  endfacet
  facet normal 0 0 1
    outer loop
      vertex 45 0 2
      vertex 20.5 -13.4019 2
      vertex 21.0074 -13.7706 2
    endloop
  endfacet
  facet normal -0 0 1
    outer loop
      vertex 19.9271 13.1468 2
      vertex 20.5 -13.4019 2
      vertex 20.5 13.4019 2
    endloop
  endfacet
  facet normal 0 0 1
    outer loop
      vertex 19.9271 13.1468 2
      vertex 19.9271 -13.1468 2
      vertex 20.5 -13.4019 2
    endloop
  endfacet
  facet normal -0 0 1
    outer loop
      vertex 19.3136 13.0164 2
      vertex 19.9271 -13.1468 2
      vertex 19.9271 13.1468 2
    endloop
  endfacet
  facet normal 0 0 1
    outer loop
      vertex 19.3136 13.0164 2
      vertex 19.3136 -13.0164 2
      vertex 19.9271 -13.1468 2
    endloop
  endfacet
  facet normal -0 0 1
    outer loop
      vertex 18.6864 13.0164 2
      vertex 19.3136 -13.0164 2
      vertex 19.3136 13.0164 2
    endloop
  endfacet
  facet normal 0 0 1
    outer loop
      vertex 18.6864 13.0164 2
      vertex 18.6864 -13.0164 2
      vertex 19.3136 -13.0164 2
    endloop
  endfacet
  facet normal 0 0 1
    outer loop
      vertex 18.0729 13.1468 2
      vertex 18.6864 -13.0164 2
      vertex 18.6864 13.0164 2
    endloop
  endfacet
  facet normal 0 0 1
    outer loop
      vertex 18.0729 13.1468 2
      vertex 18.0729 -13.1468 2
      vertex 18.6864 -13.0164 2
    endloop
  endfacet
  facet normal 0 0 1
    outer loop
      vertex 17.5 13.4019 2
      vertex 18.0729 -13.1468 2
      vertex 18.0729 13.1468 2
    endloop
  endfacet
  facet normal 0 0 1
    outer loop
      vertex 17.5 13.4019 2
      vertex 17.5 -13.4019 2
      vertex 18.0729 -13.1468 2
    endloop
  endfacet
  facet normal 0 0 1
    outer loop
      vertex 16.9926 13.7706 2
      vertex 17.5 -13.4019 2
      vertex 17.5 13.4019 2
    endloop
  endfacet
  facet normal 0 0 1
    outer loop
      vertex 16.9926 13.7706 2
      vertex 16.9926 -13.7706 2
      vertex 17.5 -13.4019 2
    endloop
  endfacet
  facet normal 0 0 1
    outer loop
      vertex 7.5 -17 2
      vertex 16.9926 13.7706 2
      vertex 16.5729 14.2366 2
    endloop
  endfacet
  facet normal 0 0 1
    outer loop
      vertex 16.9926 13.7706 2
      vertex 7.5 -17 2
      vertex 16.9926 -13.7706 2
    endloop
  endfacet
  facet normal 0 0 1
    outer loop
      vertex 16.0656 15.3763 2
      vertex -16.0656 15.3763 2
      vertex 16.2594 14.7798 2
    endloop
  endfacet
  facet normal 0 0 1
    outer loop
      vertex 16.9926 -13.7706 2
      vertex 7.5 -17 2
      vertex 16.5729 -14.2366 2
    endloop
  endfacet
  facet normal 0 0 1
    outer loop
      vertex -16.0656 15.3763 2
      vertex 16.0656 15.3763 2
      vertex -16 16 2
    endloop
  endfacet
  facet normal 0 0 1
    outer loop
      vertex 16.5729 -14.2366 2
      vertex 7.5 -17 2
      vertex 16.2594 -14.7798 2
    endloop
  endfacet
  facet normal -0 0 1
    outer loop
      vertex -16 16 2
      vertex 16.0656 15.3763 2
      vertex 16 16 2
    endloop
  endfacet
  facet normal 0 0 1
    outer loop
      vertex 16.2594 -14.7798 2
      vertex 7.5 -17 2
      vertex 16.0656 -15.3763 2
    endloop
  endfacet
  facet normal -0 0 1
    outer loop
      vertex 21.7406 17.2202 2
      vertex 45 0 2
      vertex 22.5 38.9711 2
    endloop
  endfacet
  facet normal -0 0 1
    outer loop
      vertex 21.9344 15.3763 2
      vertex 45 0 2
      vertex 22 16 2
    endloop
  endfacet
  facet normal 0 0 1
    outer loop
      vertex 45 0 2
      vertex 21.9344 16.6237 2
      vertex 22 16 2
    endloop
  endfacet
  facet normal 0 0 1
    outer loop
      vertex 45 0 2
      vertex 21.7406 17.2202 2
      vertex 21.9344 16.6237 2
    endloop
  endfacet
  facet normal 0 0 1
    outer loop
      vertex 22.5 38.9711 2
      vertex 21.4271 17.7634 2
      vertex 21.7406 17.2202 2
    endloop
  endfacet
  facet normal 0 0 1
    outer loop
      vertex 22.5 38.9711 2
      vertex 21.0074 18.2294 2
      vertex 21.4271 17.7634 2
    endloop
  endfacet
  facet normal 0 0 1
    outer loop
      vertex 22.5 38.9711 2
      vertex 20.5 18.5981 2
      vertex 21.0074 18.2294 2
    endloop
  endfacet
  facet normal 0 0 1
    outer loop
      vertex 22.5 38.9711 2
      vertex 19.9271 18.8532 2
      vertex 20.5 18.5981 2
    endloop
  endfacet
  facet normal 0 0 1
    outer loop
      vertex 22.5 38.9711 2
      vertex 19.3136 18.9836 2
      vertex 19.9271 18.8532 2
    endloop
  endfacet
  facet normal 0 0 1
    outer loop
      vertex 22.5 38.9711 2
      vertex 18.6864 18.9836 2
      vertex 19.3136 18.9836 2
    endloop
  endfacet
  facet normal 0 0 1
    outer loop
      vertex 22.5 38.9711 2
      vertex 18.0729 18.8532 2
      vertex 18.6864 18.9836 2
    endloop
  endfacet
  facet normal 0 0 1
    outer loop
      vertex 22.5 38.9711 2
      vertex 17.5 18.5981 2
      vertex 18.0729 18.8532 2
    endloop
  endfacet
  facet normal 0 0 1
    outer loop
      vertex 22.5 38.9711 2
      vertex 16.9926 18.2294 2
      vertex 17.5 18.5981 2
    endloop
  endfacet
  facet normal 0 0 1
    outer loop
      vertex -16.9926 18.2294 2
      vertex 16.9926 18.2294 2
      vertex 22.5 38.9711 2
    endloop
  endfacet
  facet normal 0 0 1
    outer loop
      vertex 16.9926 18.2294 2
      vertex -16.9926 18.2294 2
      vertex 16.5729 17.7634 2
    endloop
  endfacet
  facet normal 0 -0 1
    outer loop
      vertex -16.5729 17.7634 2
      vertex 16.5729 17.7634 2
      vertex -16.9926 18.2294 2
    endloop
  endfacet
  facet normal 0 0 1
    outer loop
      vertex 16.0656 -15.3763 2
      vertex 7.5 -17 2
      vertex 16 -16 2
    endloop
  endfacet
  facet normal 0 0 1
    outer loop
      vertex -16 16 2
      vertex 16 16 2
      vertex 16.0656 16.6237 2
    endloop
  endfacet
  facet normal 0 0 1
    outer loop
      vertex -16.2594 14.7798 2
      vertex 16.2594 14.7798 2
      vertex -16.0656 15.3763 2
    endloop
  endfacet
  facet normal 0 -0 1
    outer loop
      vertex -16.2594 17.2202 2
      vertex 16.2594 17.2202 2
      vertex -16.5729 17.7634 2
    endloop
  endfacet
  facet normal 0 0 1
    outer loop
      vertex 16.2594 14.7798 2
      vertex -16.2594 14.7798 2
      vertex 16.5729 14.2366 2
    endloop
  endfacet
  facet normal 0 0 1
    outer loop
      vertex 16.5729 14.2366 2
      vertex -7.5 -17 2
      vertex 7.5 -17 2
    endloop
  endfacet
  facet normal 0 0 1
    outer loop
      vertex 16.0656 16.6237 2
      vertex -16.0656 16.6237 2
      vertex -16 16 2
    endloop
  endfacet
  facet normal 0 0 1
    outer loop
      vertex 16.0656 16.6237 2
      vertex -16.2594 17.2202 2
      vertex -16.0656 16.6237 2
    endloop
  endfacet
  facet normal 0 0 1
    outer loop
      vertex 16.2594 17.2202 2
      vertex -16.2594 17.2202 2
      vertex 16.0656 16.6237 2
    endloop
  endfacet
  facet normal 0 0 1
    outer loop
      vertex 16.5729 17.7634 2
      vertex -16.5729 17.7634 2
      vertex 16.2594 17.2202 2
    endloop
  endfacet
  facet normal -0 0 1
    outer loop
      vertex -22.5 38.9711 2
      vertex -16.9926 18.2294 2
      vertex 22.5 38.9711 2
    endloop
  endfacet
  facet normal 0 0 1
    outer loop
      vertex -16.9926 18.2294 2
      vertex -22.5 38.9711 2
      vertex -17.5 18.5981 2
    endloop
  endfacet
  facet normal 0 0 1
    outer loop
      vertex -17.5 18.5981 2
      vertex -22.5 38.9711 2
      vertex -18.0729 18.8532 2
    endloop
  endfacet
  facet normal 0 0 1
    outer loop
      vertex -18.0729 18.8532 2
      vertex -22.5 38.9711 2
      vertex -18.6864 18.9836 2
    endloop
  endfacet
  facet normal 0 0 1
    outer loop
      vertex -18.6864 18.9836 2
      vertex -22.5 38.9711 2
      vertex -19.3136 18.9836 2
    endloop
  endfacet
  facet normal 0 0 1
    outer loop
      vertex -19.3136 18.9836 2
      vertex -22.5 38.9711 2
      vertex -19.9271 18.8532 2
    endloop
  endfacet
  facet normal 0 0 1
    outer loop
      vertex -21.9344 16.6237 2
      vertex -45 0 2
      vertex -22 16 2
    endloop
  endfacet
  facet normal 0 0 1
    outer loop
      vertex -21.7406 17.2202 2
      vertex -45 0 2
      vertex -21.9344 16.6237 2
    endloop
  endfacet
  facet normal 0 0 1
    outer loop
      vertex -45 0 2
      vertex -21.7406 17.2202 2
      vertex -22.5 38.9711 2
    endloop
  endfacet
  facet normal 0 0 1
    outer loop
      vertex -21.4271 17.7634 2
      vertex -22.5 38.9711 2
      vertex -21.7406 17.2202 2
    endloop
  endfacet
  facet normal 0 0 1
    outer loop
      vertex -21.0074 18.2294 2
      vertex -22.5 38.9711 2
      vertex -21.4271 17.7634 2
    endloop
  endfacet
  facet normal 0 0 1
    outer loop
      vertex -20.5 18.5981 2
      vertex -22.5 38.9711 2
      vertex -21.0074 18.2294 2
    endloop
  endfacet
  facet normal 0 0 1
    outer loop
      vertex -19.9271 18.8532 2
      vertex -22.5 38.9711 2
      vertex -20.5 18.5981 2
    endloop
  endfacet
  facet normal 0 0 1
    outer loop
      vertex 21.9344 -16.6237 2
      vertex 45 0 2
      vertex 22 -16 2
    endloop
  endfacet
  facet normal 0 0 1
    outer loop
      vertex 21.7406 -17.2202 2
      vertex 45 0 2
      vertex 21.9344 -16.6237 2
    endloop
  endfacet
  facet normal 0 0 1
    outer loop
      vertex 45 0 2
      vertex 21.7406 -17.2202 2
      vertex 22.5 -38.9711 2
    endloop
  endfacet
  facet normal -0 0 1
    outer loop
      vertex 21.4271 -17.7634 2
      vertex 22.5 -38.9711 2
      vertex 21.7406 -17.2202 2
    endloop
  endfacet
  facet normal -0 0 1
    outer loop
      vertex 21.0074 -18.2294 2
      vertex 22.5 -38.9711 2
      vertex 21.4271 -17.7634 2
    endloop
  endfacet
  facet normal 0 0 1
    outer loop
      vertex 17 -28 2
      vertex 21.0074 -18.2294 2
      vertex 20.5 -18.5981 2
    endloop
  endfacet
  facet normal 0 0 1
    outer loop
      vertex 17 -22 2
      vertex 20.5 -18.5981 2
      vertex 19.9271 -18.8532 2
    endloop
  endfacet
  facet normal 0 0 1
    outer loop
      vertex 17 -22 2
      vertex 19.9271 -18.8532 2
      vertex 19.3136 -18.9836 2
    endloop
  endfacet
  facet normal 0 0 1
    outer loop
      vertex 17 -22 2
      vertex 19.3136 -18.9836 2
      vertex 18.6864 -18.9836 2
    endloop
  endfacet
  facet normal 0 0 1
    outer loop
      vertex 17 -22 2
      vertex 18.6864 -18.9836 2
      vertex 18.0729 -18.8532 2
    endloop
  endfacet
  facet normal 0 0 1
    outer loop
      vertex 17 -22 2
      vertex 18.0729 -18.8532 2
      vertex 17.5 -18.5981 2
    endloop
  endfacet
  facet normal 0 0 1
    outer loop
      vertex 20.5 -18.5981 2
      vertex 17 -22 2
      vertex 17 -28 2
    endloop
  endfacet
  facet normal 0 0 1
    outer loop
      vertex 21.0074 -18.2294 2
      vertex 17 -28 2
      vertex 22.5 -38.9711 2
    endloop
  endfacet
  facet normal -0 0 1
    outer loop
      vertex -17 -28 2
      vertex 22.5 -38.9711 2
      vertex 17 -28 2
    endloop
  endfacet
  facet normal -0 0 1
    outer loop
      vertex -18.6864 -18.9836 2
      vertex -17 -22 2
      vertex -18.0729 -18.8532 2
    endloop
  endfacet
  facet normal -0 0 1
    outer loop
      vertex -19.3136 -18.9836 2
      vertex -17 -22 2
      vertex -18.6864 -18.9836 2
    endloop
  endfacet
  facet normal 0 0 1
    outer loop
      vertex -19.9271 -18.8532 2
      vertex -17 -22 2
      vertex -19.3136 -18.9836 2
    endloop
  endfacet
  facet normal 0 0 1
    outer loop
      vertex -20.5 -18.5981 2
      vertex -17 -22 2
      vertex -19.9271 -18.8532 2
    endloop
  endfacet
  facet normal 0 0 1
    outer loop
      vertex -17 -22 2
      vertex -20.5 -18.5981 2
      vertex -17 -28 2
    endloop
  endfacet
  facet normal 0 0 1
    outer loop
      vertex -21.0074 -18.2294 2
      vertex -17 -28 2
      vertex -20.5 -18.5981 2
    endloop
  endfacet
  facet normal 0 0 1
    outer loop
      vertex -22.5 -38.9711 2
      vertex -21.0074 -18.2294 2
      vertex -21.4271 -17.7634 2
    endloop
  endfacet
  facet normal 0 0 1
    outer loop
      vertex -22.5 -38.9711 2
      vertex -21.4271 -17.7634 2
      vertex -21.7406 -17.2202 2
    endloop
  endfacet
  facet normal 0 0 1
    outer loop
      vertex -17 -28 2
      vertex -22.5 -38.9711 2
      vertex 22.5 -38.9711 2
    endloop
  endfacet
  facet normal 0 0 1
    outer loop
      vertex -21.0074 -18.2294 2
      vertex -22.5 -38.9711 2
      vertex -17 -28 2
    endloop
  endfacet
  facet normal 0 0 1
    outer loop
      vertex -45 0 2
      vertex -21.7406 -17.2202 2
      vertex -21.9344 -16.6237 2
    endloop
  endfacet
  facet normal 0 0 1
    outer loop
      vertex -45 0 2
      vertex -21.9344 -16.6237 2
      vertex -22 -16 2
    endloop
  endfacet
  facet normal 0 0 1
    outer loop
      vertex -21.9344 -15.3763 2
      vertex -45 0 2
      vertex -22 -16 2
    endloop
  endfacet
  facet normal 0 0 1
    outer loop
      vertex -21.7406 -17.2202 2
      vertex -45 0 2
      vertex -22.5 -38.9711 2
    endloop
  endfacet
  facet normal -0 0 1
    outer loop
      vertex -16.0656 -16.6237 2
      vertex -7.5 -17 2
      vertex -16 -16 2
    endloop
  endfacet
  facet normal 0 0 1
    outer loop
      vertex -16.2594 -17.2202 2
      vertex -7.5 -17 2
      vertex -16.0656 -16.6237 2
    endloop
  endfacet
  facet normal 0 0 1
    outer loop
      vertex -7.5 -17 2
      vertex -16.2594 -17.2202 2
      vertex -7.5 -22 2
    endloop
  endfacet
  facet normal -0 0 1
    outer loop
      vertex -16.5729 -17.7634 2
      vertex -7.5 -22 2
      vertex -16.2594 -17.2202 2
    endloop
  endfacet
  facet normal 0 0 1
    outer loop
      vertex -17 -22 2
      vertex -16.5729 -17.7634 2
      vertex -16.9926 -18.2294 2
    endloop
  endfacet
  facet normal 0 0 1
    outer loop
      vertex -16.5729 -17.7634 2
      vertex -17 -22 2
      vertex -7.5 -22 2
    endloop
  endfacet
  facet normal -0 0 1
    outer loop
      vertex -18.0729 -18.8532 2
      vertex -17 -22 2
      vertex -17.5 -18.5981 2
    endloop
  endfacet
  facet normal -0 0 1
    outer loop
      vertex -17.5 -18.5981 2
      vertex -17 -22 2
      vertex -16.9926 -18.2294 2
    endloop
  endfacet
  facet normal 0 1 -0
    outer loop
      vertex 22.5 -38.9711 2
      vertex -22.5 -38.9711 18
      vertex 22.5 -38.9711 18
    endloop
  endfacet
  facet normal 0 1 0
    outer loop
      vertex -22.5 -38.9711 18
      vertex 22.5 -38.9711 2
      vertex -22.5 -38.9711 2
    endloop
  endfacet
  facet normal 0.866025 0.5 0
    outer loop
      vertex -22.5 -38.9711 18
      vertex -45 0 2
      vertex -45 0 18
    endloop
  endfacet
  facet normal 0.866025 0.5 0
    outer loop
      vertex -45 0 2
      vertex -22.5 -38.9711 18
      vertex -22.5 -38.9711 2
    endloop
  endfacet
  facet normal 1 -0 0
    outer loop
      vertex -17 -28 2
      vertex -17 -22 0
      vertex -17 -22 2
    endloop
  endfacet
  facet normal 1 0 0
    outer loop
      vertex -17 -22 0
      vertex -17 -28 2
      vertex -17 -28 0
    endloop
  endfacet
  facet normal -1 0 0
    outer loop
      vertex 17 -28 0
      vertex 17 -22 2
      vertex 17 -22 0
    endloop
  endfacet
  facet normal -1 -0 0
    outer loop
      vertex 17 -22 2
      vertex 17 -28 0
      vertex 17 -28 2
    endloop
  endfacet
  facet normal 0 1 -0
    outer loop
      vertex 17 -28 0
      vertex -17 -28 2
      vertex 17 -28 2
    endloop
  endfacet
  facet normal 0 1 0
    outer loop
      vertex -17 -28 2
      vertex 17 -28 0
      vertex -17 -28 0
    endloop
  endfacet
  facet normal 0 -1 0
    outer loop
      vertex 7.5 -22 0
      vertex 17 -22 2
      vertex 7.5 -22 2
    endloop
  endfacet
  facet normal 0 -1 -0
    outer loop
      vertex 17 -22 2
      vertex 7.5 -22 0
      vertex 17 -22 0
    endloop
  endfacet
  facet normal 0 -1 0
    outer loop
      vertex -17 -22 0
      vertex -7.5 -22 2
      vertex -17 -22 2
    endloop
  endfacet
  facet normal 0 -1 -0
    outer loop
      vertex -7.5 -22 2
      vertex -17 -22 0
      vertex -7.5 -22 0
    endloop
  endfacet
  facet normal 1 -0 0
    outer loop
      vertex -7.5 -22 2
      vertex -7.5 -17 0
      vertex -7.5 -17 2
    endloop
  endfacet
  facet normal 1 0 0
    outer loop
      vertex -7.5 -17 0
      vertex -7.5 -22 2
      vertex -7.5 -22 0
    endloop
  endfacet
  facet normal -1 0 0
    outer loop
      vertex 7.5 -22 0
      vertex 7.5 -17 2
      vertex 7.5 -17 0
    endloop
  endfacet
  facet normal -1 -0 0
    outer loop
      vertex 7.5 -17 2
      vertex 7.5 -22 0
      vertex 7.5 -22 2
    endloop
  endfacet
  facet normal 0 -1 0
    outer loop
      vertex -7.5 -17 0
      vertex 7.5 -17 2
      vertex -7.5 -17 2
    endloop
  endfacet
  facet normal 0 -1 -0
    outer loop
      vertex 7.5 -17 2
      vertex -7.5 -17 0
      vertex 7.5 -17 0
    endloop
  endfacet
  facet normal 1 -0 0
    outer loop
      vertex -6 38.9711 18
      vertex -6 41.1362 10
      vertex -6 41.1362 18
    endloop
  endfacet
  facet normal 1 0 0
    outer loop
      vertex -6 41.1362 10
      vertex -6 38.9711 18
      vertex -6 38.9711 10
    endloop
  endfacet
  facet normal -1 0 0
    outer loop
      vertex 6 38.9711 10
      vertex 6 41.1362 18
      vertex 6 41.1362 10
    endloop
  endfacet
  facet normal -1 -0 0
    outer loop
      vertex 6 41.1362 18
      vertex 6 38.9711 10
      vertex 6 38.9711 18
    endloop
  endfacet
  facet normal -0 0 1
    outer loop
      vertex -6 41.1362 10
      vertex 6 38.9711 10
      vertex 6 41.1362 10
    endloop
  endfacet
  facet normal 0 0 1
    outer loop
      vertex 6 38.9711 10
      vertex -6 41.1362 10
      vertex -6 38.9711 10
    endloop
  endfacet
  facet normal 0.994522 0.104529 0
    outer loop
      vertex 22 16 17
      vertex 21.9344 16.6237 2
      vertex 21.9344 16.6237 17
    endloop
  endfacet
  facet normal 0.994522 0.104529 0
    outer loop
      vertex 21.9344 16.6237 2
      vertex 22 16 17
      vertex 22 16 2
    endloop
  endfacet
  facet normal -0.207915 0.978147 0
    outer loop
      vertex 18.6864 18.9836 2
      vertex 18.0729 18.8532 17
      vertex 18.6864 18.9836 17
    endloop
  endfacet
  facet normal -0.207915 0.978147 0
    outer loop
      vertex 18.0729 18.8532 17
      vertex 18.6864 18.9836 2
      vertex 18.0729 18.8532 2
    endloop
  endfacet
  facet normal 0.207911 -0.978148 0
    outer loop
      vertex 19.3136 13.0164 2
      vertex 19.9271 13.1468 17
      vertex 19.3136 13.0164 17
    endloop
  endfacet
  facet normal 0.207911 -0.978148 0
    outer loop
      vertex 19.9271 13.1468 17
      vertex 19.3136 13.0164 2
      vertex 19.9271 13.1468 2
    endloop
  endfacet
  facet normal 0.406737 -0.913545 0
    outer loop
      vertex 19.9271 13.1468 2
      vertex 20.5 13.4019 17
      vertex 19.9271 13.1468 17
    endloop
  endfacet
  facet normal 0.406737 -0.913545 0
    outer loop
      vertex 20.5 13.4019 17
      vertex 19.9271 13.1468 2
      vertex 20.5 13.4019 2
    endloop
  endfacet
  facet normal 0.587785 0.809017 -0
    outer loop
      vertex 21.0074 18.2294 2
      vertex 20.5 18.5981 17
      vertex 21.0074 18.2294 17
    endloop
  endfacet
  facet normal 0.587785 0.809017 0
    outer loop
      vertex 20.5 18.5981 17
      vertex 21.0074 18.2294 2
      vertex 20.5 18.5981 2
    endloop
  endfacet
  facet normal -0.743146 0.669129 0
    outer loop
      vertex 16.5729 17.7634 2
      vertex 16.9926 18.2294 17
      vertex 16.9926 18.2294 2
    endloop
  endfacet
  facet normal -0.743146 0.669129 0
    outer loop
      vertex 16.9926 18.2294 17
      vertex 16.5729 17.7634 2
      vertex 16.5729 17.7634 17
    endloop
  endfacet
  facet normal -0.587784 0.809018 0
    outer loop
      vertex 17.5 18.5981 2
      vertex 16.9926 18.2294 17
      vertex 17.5 18.5981 17
    endloop
  endfacet
  facet normal -0.587784 0.809018 0
    outer loop
      vertex 16.9926 18.2294 17
      vertex 17.5 18.5981 2
      vertex 16.9926 18.2294 2
    endloop
  endfacet
  facet normal 0.866027 0.499997 0
    outer loop
      vertex 21.7406 17.2202 17
      vertex 21.4271 17.7634 2
      vertex 21.4271 17.7634 17
    endloop
  endfacet
  facet normal 0.866027 0.499997 0
    outer loop
      vertex 21.4271 17.7634 2
      vertex 21.7406 17.2202 17
      vertex 21.7406 17.2202 2
    endloop
  endfacet
  facet normal 0.951056 0.309018 0
    outer loop
      vertex 21.9344 16.6237 17
      vertex 21.7406 17.2202 2
      vertex 21.7406 17.2202 17
    endloop
  endfacet
  facet normal 0.951056 0.309018 0
    outer loop
      vertex 21.7406 17.2202 2
      vertex 21.9344 16.6237 17
      vertex 21.9344 16.6237 2
    endloop
  endfacet
  facet normal 0.743144 0.669131 0
    outer loop
      vertex 21.4271 17.7634 17
      vertex 21.0074 18.2294 2
      vertex 21.0074 18.2294 17
    endloop
  endfacet
  facet normal 0.743144 0.669131 0
    outer loop
      vertex 21.0074 18.2294 2
      vertex 21.4271 17.7634 17
      vertex 21.4271 17.7634 2
    endloop
  endfacet
  facet normal 0.207914 0.978147 -0
    outer loop
      vertex 19.9271 18.8532 2
      vertex 19.3136 18.9836 17
      vertex 19.9271 18.8532 17
    endloop
  endfacet
  facet normal 0.207914 0.978147 0
    outer loop
      vertex 19.3136 18.9836 17
      vertex 19.9271 18.8532 2
      vertex 19.3136 18.9836 2
    endloop
  endfacet
  facet normal 0 1 -0
    outer loop
      vertex 19.3136 18.9836 2
      vertex 18.6864 18.9836 17
      vertex 19.3136 18.9836 17
    endloop
  endfacet
  facet normal 0 1 0
    outer loop
      vertex 18.6864 18.9836 17
      vertex 19.3136 18.9836 2
      vertex 18.6864 18.9836 2
    endloop
  endfacet
  facet normal 0.406736 0.913546 -0
    outer loop
      vertex 20.5 18.5981 2
      vertex 19.9271 18.8532 17
      vertex 20.5 18.5981 17
    endloop
  endfacet
  facet normal 0.406736 0.913546 0
    outer loop
      vertex 19.9271 18.8532 17
      vertex 20.5 18.5981 2
      vertex 19.9271 18.8532 2
    endloop
  endfacet
  facet normal -0.951056 0.309018 0
    outer loop
      vertex 16.0656 16.6237 2
      vertex 16.2594 17.2202 17
      vertex 16.2594 17.2202 2
    endloop
  endfacet
  facet normal -0.951056 0.309018 0
    outer loop
      vertex 16.2594 17.2202 17
      vertex 16.0656 16.6237 2
      vertex 16.0656 16.6237 17
    endloop
  endfacet
  facet normal -0.866026 0.5 0
    outer loop
      vertex 16.2594 17.2202 2
      vertex 16.5729 17.7634 17
      vertex 16.5729 17.7634 2
    endloop
  endfacet
  facet normal -0.866026 0.5 0
    outer loop
      vertex 16.5729 17.7634 17
      vertex 16.2594 17.2202 2
      vertex 16.2594 17.2202 17
    endloop
  endfacet
  facet normal -0.994522 0.104526 0
    outer loop
      vertex 16 16 2
      vertex 16.0656 16.6237 17
      vertex 16.0656 16.6237 2
    endloop
  endfacet
  facet normal -0.994522 0.104526 0
    outer loop
      vertex 16.0656 16.6237 17
      vertex 16 16 2
      vertex 16 16 17
    endloop
  endfacet
  facet normal 0 0 1
    outer loop
      vertex 21.9344 16.6237 17
      vertex 21.9344 15.3763 17
      vertex 22 16 17
    endloop
  endfacet
  facet normal 0 0 1
    outer loop
      vertex 21.7406 17.2202 17
      vertex 21.9344 15.3763 17
      vertex 21.9344 16.6237 17
    endloop
  endfacet
  facet normal 0 0 1
    outer loop
      vertex 21.7406 17.2202 17
      vertex 21.7406 14.7798 17
      vertex 21.9344 15.3763 17
    endloop
  endfacet
  facet normal 0 0 1
    outer loop
      vertex 21.4271 17.7634 17
      vertex 21.7406 14.7798 17
      vertex 21.7406 17.2202 17
    endloop
  endfacet
  facet normal 0 0 1
    outer loop
      vertex 21.4271 17.7634 17
      vertex 21.4271 14.2366 17
      vertex 21.7406 14.7798 17
    endloop
  endfacet
  facet normal 0 0 1
    outer loop
      vertex 21.0074 18.2294 17
      vertex 21.4271 14.2366 17
      vertex 21.4271 17.7634 17
    endloop
  endfacet
  facet normal 0 0 1
    outer loop
      vertex 21.0074 18.2294 17
      vertex 21.0074 13.7706 17
      vertex 21.4271 14.2366 17
    endloop
  endfacet
  facet normal 0 0 1
    outer loop
      vertex 20.5 18.5981 17
      vertex 21.0074 13.7706 17
      vertex 21.0074 18.2294 17
    endloop
  endfacet
  facet normal 0 0 1
    outer loop
      vertex 20.5 18.5981 17
      vertex 20.5 13.4019 17
      vertex 21.0074 13.7706 17
    endloop
  endfacet
  facet normal 0 0 1
    outer loop
      vertex 19.9271 18.8532 17
      vertex 20.5 13.4019 17
      vertex 20.5 18.5981 17
    endloop
  endfacet
  facet normal 0 0 1
    outer loop
      vertex 19.9271 18.8532 17
      vertex 19.9271 13.1468 17
      vertex 20.5 13.4019 17
    endloop
  endfacet
  facet normal 0 0 1
    outer loop
      vertex 19.3136 18.9836 17
      vertex 19.9271 13.1468 17
      vertex 19.9271 18.8532 17
    endloop
  endfacet
  facet normal 0 0 1
    outer loop
      vertex 19.3136 18.9836 17
      vertex 19.3136 13.0164 17
      vertex 19.9271 13.1468 17
    endloop
  endfacet
  facet normal -0 0 1
    outer loop
      vertex 18.6864 18.9836 17
      vertex 19.3136 13.0164 17
      vertex 19.3136 18.9836 17
    endloop
  endfacet
  facet normal 0 0 1
    outer loop
      vertex 18.6864 18.9836 17
      vertex 18.6864 13.0164 17
      vertex 19.3136 13.0164 17
    endloop
  endfacet
  facet normal -0 0 1
    outer loop
      vertex 18.0729 18.8532 17
      vertex 18.6864 13.0164 17
      vertex 18.6864 18.9836 17
    endloop
  endfacet
  facet normal 0 0 1
    outer loop
      vertex 18.0729 18.8532 17
      vertex 18.0729 13.1468 17
      vertex 18.6864 13.0164 17
    endloop
  endfacet
  facet normal -0 0 1
    outer loop
      vertex 17.5 18.5981 17
      vertex 18.0729 13.1468 17
      vertex 18.0729 18.8532 17
    endloop
  endfacet
  facet normal 0 0 1
    outer loop
      vertex 17.5 18.5981 17
      vertex 17.5 13.4019 17
      vertex 18.0729 13.1468 17
    endloop
  endfacet
  facet normal -0 0 1
    outer loop
      vertex 16.9926 18.2294 17
      vertex 17.5 13.4019 17
      vertex 17.5 18.5981 17
    endloop
  endfacet
  facet normal 0 0 1
    outer loop
      vertex 16.9926 18.2294 17
      vertex 16.9926 13.7706 17
      vertex 17.5 13.4019 17
    endloop
  endfacet
  facet normal -0 0 1
    outer loop
      vertex 16.5729 17.7634 17
      vertex 16.9926 13.7706 17
      vertex 16.9926 18.2294 17
    endloop
  endfacet
  facet normal 0 0 1
    outer loop
      vertex 16.5729 17.7634 17
      vertex 16.5729 14.2366 17
      vertex 16.9926 13.7706 17
    endloop
  endfacet
  facet normal -0 0 1
    outer loop
      vertex 16.2594 17.2202 17
      vertex 16.5729 14.2366 17
      vertex 16.5729 17.7634 17
    endloop
  endfacet
  facet normal 0 0 1
    outer loop
      vertex 16.2594 17.2202 17
      vertex 16.2594 14.7798 17
      vertex 16.5729 14.2366 17
    endloop
  endfacet
  facet normal -0 0 1
    outer loop
      vertex 16.0656 16.6237 17
      vertex 16.2594 14.7798 17
      vertex 16.2594 17.2202 17
    endloop
  endfacet
  facet normal 0 0 1
    outer loop
      vertex 16.0656 16.6237 17
      vertex 16.0656 15.3763 17
      vertex 16.2594 14.7798 17
    endloop
  endfacet
  facet normal 0 -0 1
    outer loop
      vertex 16.0656 15.3763 17
      vertex 16.0656 16.6237 17
      vertex 16 16 17
    endloop
  endfacet
  facet normal -0.406736 0.913546 0
    outer loop
      vertex 18.0729 18.8532 2
      vertex 17.5 18.5981 17
      vertex 18.0729 18.8532 17
    endloop
  endfacet
  facet normal -0.406736 0.913546 0
    outer loop
      vertex 17.5 18.5981 17
      vertex 18.0729 18.8532 2
      vertex 17.5 18.5981 2
    endloop
  endfacet
  facet normal 0.994522 -0.104529 0
    outer loop
      vertex 21.9344 15.3763 17
      vertex 22 16 2
      vertex 22 16 17
    endloop
  endfacet
  facet normal 0.994522 -0.104529 0
    outer loop
      vertex 22 16 2
      vertex 21.9344 15.3763 17
      vertex 21.9344 15.3763 2
    endloop
  endfacet
  facet normal 0.743144 -0.669132 0
    outer loop
      vertex 21.0074 13.7706 17
      vertex 21.4271 14.2366 2
      vertex 21.4271 14.2366 17
    endloop
  endfacet
  facet normal 0.743144 -0.669132 0
    outer loop
      vertex 21.4271 14.2366 2
      vertex 21.0074 13.7706 17
      vertex 21.0074 13.7706 2
    endloop
  endfacet
  facet normal -0.994522 -0.104526 0
    outer loop
      vertex 16.0656 15.3763 2
      vertex 16 16 17
      vertex 16 16 2
    endloop
  endfacet
  facet normal -0.994522 -0.104526 0
    outer loop
      vertex 16 16 17
      vertex 16.0656 15.3763 2
      vertex 16.0656 15.3763 17
    endloop
  endfacet
  facet normal 0.866027 -0.499997 0
    outer loop
      vertex 21.4271 14.2366 17
      vertex 21.7406 14.7798 2
      vertex 21.7406 14.7798 17
    endloop
  endfacet
  facet normal 0.866027 -0.499997 0
    outer loop
      vertex 21.7406 14.7798 2
      vertex 21.4271 14.2366 17
      vertex 21.4271 14.2366 2
    endloop
  endfacet
  facet normal -0.406737 -0.913545 0
    outer loop
      vertex 17.5 13.4019 2
      vertex 18.0729 13.1468 17
      vertex 17.5 13.4019 17
    endloop
  endfacet
  facet normal -0.406737 -0.913545 -0
    outer loop
      vertex 18.0729 13.1468 17
      vertex 17.5 13.4019 2
      vertex 18.0729 13.1468 2
    endloop
  endfacet
  facet normal -0.743145 -0.66913 0
    outer loop
      vertex 16.9926 13.7706 2
      vertex 16.5729 14.2366 17
      vertex 16.5729 14.2366 2
    endloop
  endfacet
  facet normal -0.743145 -0.66913 0
    outer loop
      vertex 16.5729 14.2366 17
      vertex 16.9926 13.7706 2
      vertex 16.9926 13.7706 17
    endloop
  endfacet
  facet normal -0.951056 -0.309019 0
    outer loop
      vertex 16.2594 14.7798 2
      vertex 16.0656 15.3763 17
      vertex 16.0656 15.3763 2
    endloop
  endfacet
  facet normal -0.951056 -0.309019 0
    outer loop
      vertex 16.0656 15.3763 17
      vertex 16.2594 14.7798 2
      vertex 16.2594 14.7798 17
    endloop
  endfacet
  facet normal 0.587786 -0.809016 0
    outer loop
      vertex 20.5 13.4019 2
      vertex 21.0074 13.7706 17
      vertex 20.5 13.4019 17
    endloop
  endfacet
  facet normal 0.587786 -0.809016 0
    outer loop
      vertex 21.0074 13.7706 17
      vertex 20.5 13.4019 2
      vertex 21.0074 13.7706 2
    endloop
  endfacet
  facet normal 0.951056 -0.309019 0
    outer loop
      vertex 21.7406 14.7798 17
      vertex 21.9344 15.3763 2
      vertex 21.9344 15.3763 17
    endloop
  endfacet
  facet normal 0.951056 -0.309019 0
    outer loop
      vertex 21.9344 15.3763 2
      vertex 21.7406 14.7798 17
      vertex 21.7406 14.7798 2
    endloop
  endfacet
  facet normal 0 -1 0
    outer loop
      vertex 18.6864 13.0164 2
      vertex 19.3136 13.0164 17
      vertex 18.6864 13.0164 17
    endloop
  endfacet
  facet normal 0 -1 -0
    outer loop
      vertex 19.3136 13.0164 17
      vertex 18.6864 13.0164 2
      vertex 19.3136 13.0164 2
    endloop
  endfacet
  facet normal -0.207912 -0.978148 0
    outer loop
      vertex 18.0729 13.1468 2
      vertex 18.6864 13.0164 17
      vertex 18.0729 13.1468 17
    endloop
  endfacet
  facet normal -0.207912 -0.978148 -0
    outer loop
      vertex 18.6864 13.0164 17
      vertex 18.0729 13.1468 2
      vertex 18.6864 13.0164 2
    endloop
  endfacet
  facet normal -0.587785 -0.809017 0
    outer loop
      vertex 16.9926 13.7706 2
      vertex 17.5 13.4019 17
      vertex 16.9926 13.7706 17
    endloop
  endfacet
  facet normal -0.587785 -0.809017 -0
    outer loop
      vertex 17.5 13.4019 17
      vertex 16.9926 13.7706 2
      vertex 17.5 13.4019 2
    endloop
  endfacet
  facet normal -0.866026 -0.5 0
    outer loop
      vertex 16.5729 14.2366 2
      vertex 16.2594 14.7798 17
      vertex 16.2594 14.7798 2
    endloop
  endfacet
  facet normal -0.866026 -0.5 0
    outer loop
      vertex 16.2594 14.7798 17
      vertex 16.5729 14.2366 2
      vertex 16.5729 14.2366 17
    endloop
  endfacet
  facet normal 0.994522 0.104529 0
    outer loop
      vertex 22 -16 17
      vertex 21.9344 -15.3763 2
      vertex 21.9344 -15.3763 17
    endloop
  endfacet
  facet normal 0.994522 0.104529 0
    outer loop
      vertex 21.9344 -15.3763 2
      vertex 22 -16 17
      vertex 22 -16 2
    endloop
  endfacet
  facet normal -0.207912 0.978148 0
    outer loop
      vertex 18.6864 -13.0164 2
      vertex 18.0729 -13.1468 17
      vertex 18.6864 -13.0164 17
    endloop
  endfacet
  facet normal -0.207912 0.978148 0
    outer loop
      vertex 18.0729 -13.1468 17
      vertex 18.6864 -13.0164 2
      vertex 18.0729 -13.1468 2
    endloop
  endfacet
  facet normal 0.207914 -0.978147 0
    outer loop
      vertex 19.3136 -18.9836 2
      vertex 19.9271 -18.8532 17
      vertex 19.3136 -18.9836 17
    endloop
  endfacet
  facet normal 0.207914 -0.978147 0
    outer loop
      vertex 19.9271 -18.8532 17
      vertex 19.3136 -18.9836 2
      vertex 19.9271 -18.8532 2
    endloop
  endfacet
  facet normal 0.406736 -0.913546 0
    outer loop
      vertex 19.9271 -18.8532 2
      vertex 20.5 -18.5981 17
      vertex 19.9271 -18.8532 17
    endloop
  endfacet
  facet normal 0.406736 -0.913546 0
    outer loop
      vertex 20.5 -18.5981 17
      vertex 19.9271 -18.8532 2
      vertex 20.5 -18.5981 2
    endloop
  endfacet
  facet normal 0.587786 0.809016 -0
    outer loop
      vertex 21.0074 -13.7706 2
      vertex 20.5 -13.4019 17
      vertex 21.0074 -13.7706 17
    endloop
  endfacet
  facet normal 0.587786 0.809016 0
    outer loop
      vertex 20.5 -13.4019 17
      vertex 21.0074 -13.7706 2
      vertex 20.5 -13.4019 2
    endloop
  endfacet
  facet normal -0.743145 0.66913 0
    outer loop
      vertex 16.5729 -14.2366 2
      vertex 16.9926 -13.7706 17
      vertex 16.9926 -13.7706 2
    endloop
  endfacet
  facet normal -0.743145 0.66913 0
    outer loop
      vertex 16.9926 -13.7706 17
      vertex 16.5729 -14.2366 2
      vertex 16.5729 -14.2366 17
    endloop
  endfacet
  facet normal -0.587785 0.809017 0
    outer loop
      vertex 17.5 -13.4019 2
      vertex 16.9926 -13.7706 17
      vertex 17.5 -13.4019 17
    endloop
  endfacet
  facet normal -0.587785 0.809017 0
    outer loop
      vertex 16.9926 -13.7706 17
      vertex 17.5 -13.4019 2
      vertex 16.9926 -13.7706 2
    endloop
  endfacet
  facet normal 0.866027 0.499997 0
    outer loop
      vertex 21.7406 -14.7798 17
      vertex 21.4271 -14.2366 2
      vertex 21.4271 -14.2366 17
    endloop
  endfacet
  facet normal 0.866027 0.499997 0
    outer loop
      vertex 21.4271 -14.2366 2
      vertex 21.7406 -14.7798 17
      vertex 21.7406 -14.7798 2
    endloop
  endfacet
  facet normal 0.951056 0.309019 0
    outer loop
      vertex 21.9344 -15.3763 17
      vertex 21.7406 -14.7798 2
      vertex 21.7406 -14.7798 17
    endloop
  endfacet
  facet normal 0.951056 0.309019 0
    outer loop
      vertex 21.7406 -14.7798 2
      vertex 21.9344 -15.3763 17
      vertex 21.9344 -15.3763 2
    endloop
  endfacet
  facet normal 0.743144 0.669132 0
    outer loop
      vertex 21.4271 -14.2366 17
      vertex 21.0074 -13.7706 2
      vertex 21.0074 -13.7706 17
    endloop
  endfacet
  facet normal 0.743144 0.669132 0
    outer loop
      vertex 21.0074 -13.7706 2
      vertex 21.4271 -14.2366 17
      vertex 21.4271 -14.2366 2
    endloop
  endfacet
  facet normal 0.207911 0.978148 -0
    outer loop
      vertex 19.9271 -13.1468 2
      vertex 19.3136 -13.0164 17
      vertex 19.9271 -13.1468 17
    endloop
  endfacet
  facet normal 0.207911 0.978148 0
    outer loop
      vertex 19.3136 -13.0164 17
      vertex 19.9271 -13.1468 2
      vertex 19.3136 -13.0164 2
    endloop
  endfacet
  facet normal 0 1 -0
    outer loop
      vertex 19.3136 -13.0164 2
      vertex 18.6864 -13.0164 17
      vertex 19.3136 -13.0164 17
    endloop
  endfacet
  facet normal 0 1 0
    outer loop
      vertex 18.6864 -13.0164 17
      vertex 19.3136 -13.0164 2
      vertex 18.6864 -13.0164 2
    endloop
  endfacet
  facet normal 0.406737 0.913545 -0
    outer loop
      vertex 20.5 -13.4019 2
      vertex 19.9271 -13.1468 17
      vertex 20.5 -13.4019 17
    endloop
  endfacet
  facet normal 0.406737 0.913545 0
    outer loop
      vertex 19.9271 -13.1468 17
      vertex 20.5 -13.4019 2
      vertex 19.9271 -13.1468 2
    endloop
  endfacet
  facet normal -0.951056 0.309019 0
    outer loop
      vertex 16.0656 -15.3763 2
      vertex 16.2594 -14.7798 17
      vertex 16.2594 -14.7798 2
    endloop
  endfacet
  facet normal -0.951056 0.309019 0
    outer loop
      vertex 16.2594 -14.7798 17
      vertex 16.0656 -15.3763 2
      vertex 16.0656 -15.3763 17
    endloop
  endfacet
  facet normal -0.866026 0.5 0
    outer loop
      vertex 16.2594 -14.7798 2
      vertex 16.5729 -14.2366 17
      vertex 16.5729 -14.2366 2
    endloop
  endfacet
  facet normal -0.866026 0.5 0
    outer loop
      vertex 16.5729 -14.2366 17
      vertex 16.2594 -14.7798 2
      vertex 16.2594 -14.7798 17
    endloop
  endfacet
  facet normal -0.994522 0.104526 0
    outer loop
      vertex 16 -16 2
      vertex 16.0656 -15.3763 17
      vertex 16.0656 -15.3763 2
    endloop
  endfacet
  facet normal -0.994522 0.104526 0
    outer loop
      vertex 16.0656 -15.3763 17
      vertex 16 -16 2
      vertex 16 -16 17
    endloop
  endfacet
  facet normal 0 0 1
    outer loop
      vertex 21.9344 -15.3763 17
      vertex 21.9344 -16.6237 17
      vertex 22 -16 17
    endloop
  endfacet
  facet normal 0 0 1
    outer loop
      vertex 21.7406 -14.7798 17
      vertex 21.9344 -16.6237 17
      vertex 21.9344 -15.3763 17
    endloop
  endfacet
  facet normal 0 0 1
    outer loop
      vertex 21.7406 -14.7798 17
      vertex 21.7406 -17.2202 17
      vertex 21.9344 -16.6237 17
    endloop
  endfacet
  facet normal 0 0 1
    outer loop
      vertex 21.4271 -14.2366 17
      vertex 21.7406 -17.2202 17
      vertex 21.7406 -14.7798 17
    endloop
  endfacet
  facet normal 0 0 1
    outer loop
      vertex 21.4271 -14.2366 17
      vertex 21.4271 -17.7634 17
      vertex 21.7406 -17.2202 17
    endloop
  endfacet
  facet normal 0 0 1
    outer loop
      vertex 21.0074 -13.7706 17
      vertex 21.4271 -17.7634 17
      vertex 21.4271 -14.2366 17
    endloop
  endfacet
  facet normal 0 0 1
    outer loop
      vertex 21.0074 -13.7706 17
      vertex 21.0074 -18.2294 17
      vertex 21.4271 -17.7634 17
    endloop
  endfacet
  facet normal 0 0 1
    outer loop
      vertex 20.5 -13.4019 17
      vertex 21.0074 -18.2294 17
      vertex 21.0074 -13.7706 17
    endloop
  endfacet
  facet normal 0 0 1
    outer loop
      vertex 20.5 -13.4019 17
      vertex 20.5 -18.5981 17
      vertex 21.0074 -18.2294 17
    endloop
  endfacet
  facet normal 0 0 1
    outer loop
      vertex 19.9271 -13.1468 17
      vertex 20.5 -18.5981 17
      vertex 20.5 -13.4019 17
    endloop
  endfacet
  facet normal 0 0 1
    outer loop
      vertex 19.9271 -13.1468 17
      vertex 19.9271 -18.8532 17
      vertex 20.5 -18.5981 17
    endloop
  endfacet
  facet normal 0 0 1
    outer loop
      vertex 19.3136 -13.0164 17
      vertex 19.9271 -18.8532 17
      vertex 19.9271 -13.1468 17
    endloop
  endfacet
  facet normal 0 0 1
    outer loop
      vertex 19.3136 -13.0164 17
      vertex 19.3136 -18.9836 17
      vertex 19.9271 -18.8532 17
    endloop
  endfacet
  facet normal -0 0 1
    outer loop
      vertex 18.6864 -13.0164 17
      vertex 19.3136 -18.9836 17
      vertex 19.3136 -13.0164 17
    endloop
  endfacet
  facet normal 0 0 1
    outer loop
      vertex 18.6864 -13.0164 17
      vertex 18.6864 -18.9836 17
      vertex 19.3136 -18.9836 17
    endloop
  endfacet
  facet normal -0 0 1
    outer loop
      vertex 18.0729 -13.1468 17
      vertex 18.6864 -18.9836 17
      vertex 18.6864 -13.0164 17
    endloop
  endfacet
  facet normal 0 0 1
    outer loop
      vertex 18.0729 -13.1468 17
      vertex 18.0729 -18.8532 17
      vertex 18.6864 -18.9836 17
    endloop
  endfacet
  facet normal -0 0 1
    outer loop
      vertex 17.5 -13.4019 17
      vertex 18.0729 -18.8532 17
      vertex 18.0729 -13.1468 17
    endloop
  endfacet
  facet normal 0 0 1
    outer loop
      vertex 17.5 -13.4019 17
      vertex 17.5 -18.5981 17
      vertex 18.0729 -18.8532 17
    endloop
  endfacet
  facet normal -0 0 1
    outer loop
      vertex 16.9926 -13.7706 17
      vertex 17.5 -18.5981 17
      vertex 17.5 -13.4019 17
    endloop
  endfacet
  facet normal 0 0 1
    outer loop
      vertex 16.9926 -13.7706 17
      vertex 16.9926 -18.2294 17
      vertex 17.5 -18.5981 17
    endloop
  endfacet
  facet normal -0 0 1
    outer loop
      vertex 16.5729 -14.2366 17
      vertex 16.9926 -18.2294 17
      vertex 16.9926 -13.7706 17
    endloop
  endfacet
  facet normal 0 0 1
    outer loop
      vertex 16.5729 -14.2366 17
      vertex 16.5729 -17.7634 17
      vertex 16.9926 -18.2294 17
    endloop
  endfacet
  facet normal -0 0 1
    outer loop
      vertex 16.2594 -14.7798 17
      vertex 16.5729 -17.7634 17
      vertex 16.5729 -14.2366 17
    endloop
  endfacet
  facet normal 0 0 1
    outer loop
      vertex 16.2594 -14.7798 17
      vertex 16.2594 -17.2202 17
      vertex 16.5729 -17.7634 17
    endloop
  endfacet
  facet normal -0 0 1
    outer loop
      vertex 16.0656 -15.3763 17
      vertex 16.2594 -17.2202 17
      vertex 16.2594 -14.7798 17
    endloop
  endfacet
  facet normal 0 0 1
    outer loop
      vertex 16.0656 -15.3763 17
      vertex 16.0656 -16.6237 17
      vertex 16.2594 -17.2202 17
    endloop
  endfacet
  facet normal 0 -0 1
    outer loop
      vertex 16.0656 -16.6237 17
      vertex 16.0656 -15.3763 17
      vertex 16 -16 17
    endloop
  endfacet
  facet normal -0.406737 0.913545 0
    outer loop
      vertex 18.0729 -13.1468 2
      vertex 17.5 -13.4019 17
      vertex 18.0729 -13.1468 17
    endloop
  endfacet
  facet normal -0.406737 0.913545 0
    outer loop
      vertex 17.5 -13.4019 17
      vertex 18.0729 -13.1468 2
      vertex 17.5 -13.4019 2
    endloop
  endfacet
  facet normal 0.994522 -0.104529 0
    outer loop
      vertex 21.9344 -16.6237 17
      vertex 22 -16 2
      vertex 22 -16 17
    endloop
  endfacet
  facet normal 0.994522 -0.104529 0
    outer loop
      vertex 22 -16 2
      vertex 21.9344 -16.6237 17
      vertex 21.9344 -16.6237 2
    endloop
  endfacet
  facet normal 0.743144 -0.669131 0
    outer loop
      vertex 21.0074 -18.2294 17
      vertex 21.4271 -17.7634 2
      vertex 21.4271 -17.7634 17
    endloop
  endfacet
  facet normal 0.743144 -0.669131 0
    outer loop
      vertex 21.4271 -17.7634 2
      vertex 21.0074 -18.2294 17
      vertex 21.0074 -18.2294 2
    endloop
  endfacet
  facet normal -0.994522 -0.104526 0
    outer loop
      vertex 16.0656 -16.6237 2
      vertex 16 -16 17
      vertex 16 -16 2
    endloop
  endfacet
  facet normal -0.994522 -0.104526 0
    outer loop
      vertex 16 -16 17
      vertex 16.0656 -16.6237 2
      vertex 16.0656 -16.6237 17
    endloop
  endfacet
  facet normal 0.866027 -0.499997 0
    outer loop
      vertex 21.4271 -17.7634 17
      vertex 21.7406 -17.2202 2
      vertex 21.7406 -17.2202 17
    endloop
  endfacet
  facet normal 0.866027 -0.499997 0
    outer loop
      vertex 21.7406 -17.2202 2
      vertex 21.4271 -17.7634 17
      vertex 21.4271 -17.7634 2
    endloop
  endfacet
  facet normal -0.406736 -0.913546 0
    outer loop
      vertex 17.5 -18.5981 2
      vertex 18.0729 -18.8532 17
      vertex 17.5 -18.5981 17
    endloop
  endfacet
  facet normal -0.406736 -0.913546 -0
    outer loop
      vertex 18.0729 -18.8532 17
      vertex 17.5 -18.5981 2
      vertex 18.0729 -18.8532 2
    endloop
  endfacet
  facet normal -0.743146 -0.669129 0
    outer loop
      vertex 16.9926 -18.2294 2
      vertex 16.5729 -17.7634 17
      vertex 16.5729 -17.7634 2
    endloop
  endfacet
  facet normal -0.743146 -0.669129 0
    outer loop
      vertex 16.5729 -17.7634 17
      vertex 16.9926 -18.2294 2
      vertex 16.9926 -18.2294 17
    endloop
  endfacet
  facet normal -0.951056 -0.309018 0
    outer loop
      vertex 16.2594 -17.2202 2
      vertex 16.0656 -16.6237 17
      vertex 16.0656 -16.6237 2
    endloop
  endfacet
  facet normal -0.951056 -0.309018 0
    outer loop
      vertex 16.0656 -16.6237 17
      vertex 16.2594 -17.2202 2
      vertex 16.2594 -17.2202 17
    endloop
  endfacet
  facet normal 0.587785 -0.809017 0
    outer loop
      vertex 20.5 -18.5981 2
      vertex 21.0074 -18.2294 17
      vertex 20.5 -18.5981 17
    endloop
  endfacet
  facet normal 0.587785 -0.809017 0
    outer loop
      vertex 21.0074 -18.2294 17
      vertex 20.5 -18.5981 2
      vertex 21.0074 -18.2294 2
    endloop
  endfacet
  facet normal 0.951056 -0.309018 0
    outer loop
      vertex 21.7406 -17.2202 17
      vertex 21.9344 -16.6237 2
      vertex 21.9344 -16.6237 17
    endloop
  endfacet
  facet normal 0.951056 -0.309018 0
    outer loop
      vertex 21.9344 -16.6237 2
      vertex 21.7406 -17.2202 17
      vertex 21.7406 -17.2202 2
    endloop
  endfacet
  facet normal -0.207915 -0.978147 0
    outer loop
      vertex 18.0729 -18.8532 2
      vertex 18.6864 -18.9836 17
      vertex 18.0729 -18.8532 17
    endloop
  endfacet
  facet normal -0.207915 -0.978147 -0
    outer loop
      vertex 18.6864 -18.9836 17
      vertex 18.0729 -18.8532 2
      vertex 18.6864 -18.9836 2
    endloop
  endfacet
  facet normal -0.587784 -0.809018 0
    outer loop
      vertex 16.9926 -18.2294 2
      vertex 17.5 -18.5981 17
      vertex 16.9926 -18.2294 17
    endloop
  endfacet
  facet normal -0.587784 -0.809018 -0
    outer loop
      vertex 17.5 -18.5981 17
      vertex 16.9926 -18.2294 2
      vertex 17.5 -18.5981 2
    endloop
  endfacet
  facet normal -0.866026 -0.5 0
    outer loop
      vertex 16.5729 -17.7634 2
      vertex 16.2594 -17.2202 17
      vertex 16.2594 -17.2202 2
    endloop
  endfacet
  facet normal -0.866026 -0.5 0
    outer loop
      vertex 16.2594 -17.2202 17
      vertex 16.5729 -17.7634 2
      vertex 16.5729 -17.7634 17
    endloop
  endfacet
  facet normal 0 -1 0
    outer loop
      vertex 18.6864 -18.9836 2
      vertex 19.3136 -18.9836 17
      vertex 18.6864 -18.9836 17
    endloop
  endfacet
  facet normal 0 -1 -0
    outer loop
      vertex 19.3136 -18.9836 17
      vertex 18.6864 -18.9836 2
      vertex 19.3136 -18.9836 2
    endloop
  endfacet
  facet normal 0.994522 0.104526 0
    outer loop
      vertex -16 16 17
      vertex -16.0656 16.6237 2
      vertex -16.0656 16.6237 17
    endloop
  endfacet
  facet normal 0.994522 0.104526 0
    outer loop
      vertex -16.0656 16.6237 2
      vertex -16 16 17
      vertex -16 16 2
    endloop
  endfacet
  facet normal -0.994522 0.104529 0
    outer loop
      vertex -22 16 2
      vertex -21.9344 16.6237 17
      vertex -21.9344 16.6237 2
    endloop
  endfacet
  facet normal -0.994522 0.104529 0
    outer loop
      vertex -21.9344 16.6237 17
      vertex -22 16 2
      vertex -22 16 17
    endloop
  endfacet
  facet normal 0 1 -0
    outer loop
      vertex -18.6864 18.9836 2
      vertex -19.3136 18.9836 17
      vertex -18.6864 18.9836 17
    endloop
  endfacet
  facet normal 0 1 0
    outer loop
      vertex -19.3136 18.9836 17
      vertex -18.6864 18.9836 2
      vertex -19.3136 18.9836 2
    endloop
  endfacet
  facet normal 0 -1 0
    outer loop
      vertex -19.3136 13.0164 2
      vertex -18.6864 13.0164 17
      vertex -19.3136 13.0164 17
    endloop
  endfacet
  facet normal 0 -1 -0
    outer loop
      vertex -18.6864 13.0164 17
      vertex -19.3136 13.0164 2
      vertex -18.6864 13.0164 2
    endloop
  endfacet
  facet normal 0.587784 0.809018 -0
    outer loop
      vertex -16.9926 18.2294 2
      vertex -17.5 18.5981 17
      vertex -16.9926 18.2294 17
    endloop
  endfacet
  facet normal 0.587784 0.809018 0
    outer loop
      vertex -17.5 18.5981 17
      vertex -16.9926 18.2294 2
      vertex -17.5 18.5981 2
    endloop
  endfacet
  facet normal 0.406736 0.913546 -0
    outer loop
      vertex -17.5 18.5981 2
      vertex -18.0729 18.8532 17
      vertex -17.5 18.5981 17
    endloop
  endfacet
  facet normal 0.406736 0.913546 0
    outer loop
      vertex -18.0729 18.8532 17
      vertex -17.5 18.5981 2
      vertex -18.0729 18.8532 2
    endloop
  endfacet
  facet normal -0.743144 0.669131 0
    outer loop
      vertex -21.4271 17.7634 2
      vertex -21.0074 18.2294 17
      vertex -21.0074 18.2294 2
    endloop
  endfacet
  facet normal -0.743144 0.669131 0
    outer loop
      vertex -21.0074 18.2294 17
      vertex -21.4271 17.7634 2
      vertex -21.4271 17.7634 17
    endloop
  endfacet
  facet normal 0 0 1
    outer loop
      vertex -16.0656 16.6237 17
      vertex -16.0656 15.3763 17
      vertex -16 16 17
    endloop
  endfacet
  facet normal 0 0 1
    outer loop
      vertex -16.2594 17.2202 17
      vertex -16.0656 15.3763 17
      vertex -16.0656 16.6237 17
    endloop
  endfacet
  facet normal 0 0 1
    outer loop
      vertex -16.2594 17.2202 17
      vertex -16.2594 14.7798 17
      vertex -16.0656 15.3763 17
    endloop
  endfacet
  facet normal 0 0 1
    outer loop
      vertex -16.5729 17.7634 17
      vertex -16.2594 14.7798 17
      vertex -16.2594 17.2202 17
    endloop
  endfacet
  facet normal 0 0 1
    outer loop
      vertex -16.5729 17.7634 17
      vertex -16.5729 14.2366 17
      vertex -16.2594 14.7798 17
    endloop
  endfacet
  facet normal 0 0 1
    outer loop
      vertex -16.9926 18.2294 17
      vertex -16.5729 14.2366 17
      vertex -16.5729 17.7634 17
    endloop
  endfacet
  facet normal 0 0 1
    outer loop
      vertex -16.9926 18.2294 17
      vertex -16.9926 13.7706 17
      vertex -16.5729 14.2366 17
    endloop
  endfacet
  facet normal 0 0 1
    outer loop
      vertex -17.5 18.5981 17
      vertex -16.9926 13.7706 17
      vertex -16.9926 18.2294 17
    endloop
  endfacet
  facet normal 0 0 1
    outer loop
      vertex -17.5 18.5981 17
      vertex -17.5 13.4019 17
      vertex -16.9926 13.7706 17
    endloop
  endfacet
  facet normal 0 0 1
    outer loop
      vertex -18.0729 18.8532 17
      vertex -17.5 13.4019 17
      vertex -17.5 18.5981 17
    endloop
  endfacet
  facet normal 0 0 1
    outer loop
      vertex -18.0729 18.8532 17
      vertex -18.0729 13.1468 17
      vertex -17.5 13.4019 17
    endloop
  endfacet
  facet normal 0 0 1
    outer loop
      vertex -18.6864 18.9836 17
      vertex -18.0729 13.1468 17
      vertex -18.0729 18.8532 17
    endloop
  endfacet
  facet normal 0 0 1
    outer loop
      vertex -18.6864 18.9836 17
      vertex -18.6864 13.0164 17
      vertex -18.0729 13.1468 17
    endloop
  endfacet
  facet normal -0 0 1
    outer loop
      vertex -19.3136 18.9836 17
      vertex -18.6864 13.0164 17
      vertex -18.6864 18.9836 17
    endloop
  endfacet
  facet normal 0 0 1
    outer loop
      vertex -19.3136 18.9836 17
      vertex -19.3136 13.0164 17
      vertex -18.6864 13.0164 17
    endloop
  endfacet
  facet normal -0 0 1
    outer loop
      vertex -19.9271 18.8532 17
      vertex -19.3136 13.0164 17
      vertex -19.3136 18.9836 17
    endloop
  endfacet
  facet normal 0 0 1
    outer loop
      vertex -19.9271 18.8532 17
      vertex -19.9271 13.1468 17
      vertex -19.3136 13.0164 17
    endloop
  endfacet
  facet normal -0 0 1
    outer loop
      vertex -20.5 18.5981 17
      vertex -19.9271 13.1468 17
      vertex -19.9271 18.8532 17
    endloop
  endfacet
  facet normal 0 0 1
    outer loop
      vertex -20.5 18.5981 17
      vertex -20.5 13.4019 17
      vertex -19.9271 13.1468 17
    endloop
  endfacet
  facet normal -0 0 1
    outer loop
      vertex -21.0074 18.2294 17
      vertex -20.5 13.4019 17
      vertex -20.5 18.5981 17
    endloop
  endfacet
  facet normal 0 0 1
    outer loop
      vertex -21.0074 18.2294 17
      vertex -21.0074 13.7706 17
      vertex -20.5 13.4019 17
    endloop
  endfacet
  facet normal -0 0 1
    outer loop
      vertex -21.4271 17.7634 17
      vertex -21.0074 13.7706 17
      vertex -21.0074 18.2294 17
    endloop
  endfacet
  facet normal 0 0 1
    outer loop
      vertex -21.4271 17.7634 17
      vertex -21.4271 14.2366 17
      vertex -21.0074 13.7706 17
    endloop
  endfacet
  facet normal -0 0 1
    outer loop
      vertex -21.7406 17.2202 17
      vertex -21.4271 14.2366 17
      vertex -21.4271 17.7634 17
    endloop
  endfacet
  facet normal 0 0 1
    outer loop
      vertex -21.7406 17.2202 17
      vertex -21.7406 14.7798 17
      vertex -21.4271 14.2366 17
    endloop
  endfacet
  facet normal -0 0 1
    outer loop
      vertex -21.9344 16.6237 17
      vertex -21.7406 14.7798 17
      vertex -21.7406 17.2202 17
    endloop
  endfacet
  facet normal 0 0 1
    outer loop
      vertex -21.9344 16.6237 17
      vertex -21.9344 15.3763 17
      vertex -21.7406 14.7798 17
    endloop
  endfacet
  facet normal 0 -0 1
    outer loop
      vertex -21.9344 15.3763 17
      vertex -21.9344 16.6237 17
      vertex -22 16 17
    endloop
  endfacet
  facet normal -0.406736 0.913546 0
    outer loop
      vertex -19.9271 18.8532 2
      vertex -20.5 18.5981 17
      vertex -19.9271 18.8532 17
    endloop
  endfacet
  facet normal -0.406736 0.913546 0
    outer loop
      vertex -20.5 18.5981 17
      vertex -19.9271 18.8532 2
      vertex -20.5 18.5981 2
    endloop
  endfacet
  facet normal 0.866026 -0.5 0
    outer loop
      vertex -16.5729 14.2366 17
      vertex -16.2594 14.7798 2
      vertex -16.2594 14.7798 17
    endloop
  endfacet
  facet normal 0.866026 -0.5 0
    outer loop
      vertex -16.2594 14.7798 2
      vertex -16.5729 14.2366 17
      vertex -16.5729 14.2366 2
    endloop
  endfacet
  facet normal 0.866026 0.5 0
    outer loop
      vertex -16.2594 17.2202 17
      vertex -16.5729 17.7634 2
      vertex -16.5729 17.7634 17
    endloop
  endfacet
  facet normal 0.866026 0.5 0
    outer loop
      vertex -16.5729 17.7634 2
      vertex -16.2594 17.2202 17
      vertex -16.2594 17.2202 2
    endloop
  endfacet
  facet normal 0.951056 0.309018 0
    outer loop
      vertex -16.0656 16.6237 17
      vertex -16.2594 17.2202 2
      vertex -16.2594 17.2202 17
    endloop
  endfacet
  facet normal 0.951056 0.309018 0
    outer loop
      vertex -16.2594 17.2202 2
      vertex -16.0656 16.6237 17
      vertex -16.0656 16.6237 2
    endloop
  endfacet
  facet normal 0.743146 0.669129 0
    outer loop
      vertex -16.5729 17.7634 17
      vertex -16.9926 18.2294 2
      vertex -16.9926 18.2294 17
    endloop
  endfacet
  facet normal 0.743146 0.669129 0
    outer loop
      vertex -16.9926 18.2294 2
      vertex -16.5729 17.7634 17
      vertex -16.5729 17.7634 2
    endloop
  endfacet
  facet normal 0.207915 0.978147 -0
    outer loop
      vertex -18.0729 18.8532 2
      vertex -18.6864 18.9836 17
      vertex -18.0729 18.8532 17
    endloop
  endfacet
  facet normal 0.207915 0.978147 0
    outer loop
      vertex -18.6864 18.9836 17
      vertex -18.0729 18.8532 2
      vertex -18.6864 18.9836 2
    endloop
  endfacet
  facet normal -0.866027 0.499997 0
    outer loop
      vertex -21.7406 17.2202 2
      vertex -21.4271 17.7634 17
      vertex -21.4271 17.7634 2
    endloop
  endfacet
  facet normal -0.866027 0.499997 0
    outer loop
      vertex -21.4271 17.7634 17
      vertex -21.7406 17.2202 2
      vertex -21.7406 17.2202 17
    endloop
  endfacet
  facet normal -0.951056 0.309018 0
    outer loop
      vertex -21.9344 16.6237 2
      vertex -21.7406 17.2202 17
      vertex -21.7406 17.2202 2
    endloop
  endfacet
  facet normal -0.951056 0.309018 0
    outer loop
      vertex -21.7406 17.2202 17
      vertex -21.9344 16.6237 2
      vertex -21.9344 16.6237 17
    endloop
  endfacet
  facet normal -0.587785 0.809017 0
    outer loop
      vertex -20.5 18.5981 2
      vertex -21.0074 18.2294 17
      vertex -20.5 18.5981 17
    endloop
  endfacet
  facet normal -0.587785 0.809017 0
    outer loop
      vertex -21.0074 18.2294 17
      vertex -20.5 18.5981 2
      vertex -21.0074 18.2294 2
    endloop
  endfacet
  facet normal -0.207914 0.978147 0
    outer loop
      vertex -19.3136 18.9836 2
      vertex -19.9271 18.8532 17
      vertex -19.3136 18.9836 17
    endloop
  endfacet
  facet normal -0.207914 0.978147 0
    outer loop
      vertex -19.9271 18.8532 17
      vertex -19.3136 18.9836 2
      vertex -19.9271 18.8532 2
    endloop
  endfacet
  facet normal 0.994522 -0.104526 0
    outer loop
      vertex -16.0656 15.3763 17
      vertex -16 16 2
      vertex -16 16 17
    endloop
  endfacet
  facet normal 0.994522 -0.104526 0
    outer loop
      vertex -16 16 2
      vertex -16.0656 15.3763 17
      vertex -16.0656 15.3763 2
    endloop
  endfacet
  facet normal -0.994522 -0.104529 0
    outer loop
      vertex -21.9344 15.3763 2
      vertex -22 16 17
      vertex -22 16 2
    endloop
  endfacet
  facet normal -0.994522 -0.104529 0
    outer loop
      vertex -22 16 17
      vertex -21.9344 15.3763 2
      vertex -21.9344 15.3763 17
    endloop
  endfacet
  facet normal 0.207912 -0.978148 0
    outer loop
      vertex -18.6864 13.0164 2
      vertex -18.0729 13.1468 17
      vertex -18.6864 13.0164 17
    endloop
  endfacet
  facet normal 0.207912 -0.978148 0
    outer loop
      vertex -18.0729 13.1468 17
      vertex -18.6864 13.0164 2
      vertex -18.0729 13.1468 2
    endloop
  endfacet
  facet normal 0.951056 -0.309019 0
    outer loop
      vertex -16.2594 14.7798 17
      vertex -16.0656 15.3763 2
      vertex -16.0656 15.3763 17
    endloop
  endfacet
  facet normal 0.951056 -0.309019 0
    outer loop
      vertex -16.0656 15.3763 2
      vertex -16.2594 14.7798 17
      vertex -16.2594 14.7798 2
    endloop
  endfacet
  facet normal 0.587785 -0.809017 0
    outer loop
      vertex -17.5 13.4019 2
      vertex -16.9926 13.7706 17
      vertex -17.5 13.4019 17
    endloop
  endfacet
  facet normal 0.587785 -0.809017 0
    outer loop
      vertex -16.9926 13.7706 17
      vertex -17.5 13.4019 2
      vertex -16.9926 13.7706 2
    endloop
  endfacet
  facet normal 0.406737 -0.913545 0
    outer loop
      vertex -18.0729 13.1468 2
      vertex -17.5 13.4019 17
      vertex -18.0729 13.1468 17
    endloop
  endfacet
  facet normal 0.406737 -0.913545 0
    outer loop
      vertex -17.5 13.4019 17
      vertex -18.0729 13.1468 2
      vertex -17.5 13.4019 2
    endloop
  endfacet
  facet normal -0.207911 -0.978148 0
    outer loop
      vertex -19.9271 13.1468 2
      vertex -19.3136 13.0164 17
      vertex -19.9271 13.1468 17
    endloop
  endfacet
  facet normal -0.207911 -0.978148 -0
    outer loop
      vertex -19.3136 13.0164 17
      vertex -19.9271 13.1468 2
      vertex -19.3136 13.0164 2
    endloop
  endfacet
  facet normal -0.743144 -0.669132 0
    outer loop
      vertex -21.0074 13.7706 2
      vertex -21.4271 14.2366 17
      vertex -21.4271 14.2366 2
    endloop
  endfacet
  facet normal -0.743144 -0.669132 0
    outer loop
      vertex -21.4271 14.2366 17
      vertex -21.0074 13.7706 2
      vertex -21.0074 13.7706 17
    endloop
  endfacet
  facet normal -0.866027 -0.499997 0
    outer loop
      vertex -21.4271 14.2366 2
      vertex -21.7406 14.7798 17
      vertex -21.7406 14.7798 2
    endloop
  endfacet
  facet normal -0.866027 -0.499997 0
    outer loop
      vertex -21.7406 14.7798 17
      vertex -21.4271 14.2366 2
      vertex -21.4271 14.2366 17
    endloop
  endfacet
  facet normal -0.951056 -0.309019 0
    outer loop
      vertex -21.7406 14.7798 2
      vertex -21.9344 15.3763 17
      vertex -21.9344 15.3763 2
    endloop
  endfacet
  facet normal -0.951056 -0.309019 0
    outer loop
      vertex -21.9344 15.3763 17
      vertex -21.7406 14.7798 2
      vertex -21.7406 14.7798 17
    endloop
  endfacet
  facet normal 0.743145 -0.66913 0
    outer loop
      vertex -16.9926 13.7706 17
      vertex -16.5729 14.2366 2
      vertex -16.5729 14.2366 17
    endloop
  endfacet
  facet normal 0.743145 -0.66913 0
    outer loop
      vertex -16.5729 14.2366 2
      vertex -16.9926 13.7706 17
      vertex -16.9926 13.7706 2
    endloop
  endfacet
  facet normal -0.587786 -0.809016 0
    outer loop
      vertex -21.0074 13.7706 2
      vertex -20.5 13.4019 17
      vertex -21.0074 13.7706 17
    endloop
  endfacet
  facet normal -0.587786 -0.809016 -0
    outer loop
      vertex -20.5 13.4019 17
      vertex -21.0074 13.7706 2
      vertex -20.5 13.4019 2
    endloop
  endfacet
  facet normal -0.406737 -0.913545 0
    outer loop
      vertex -20.5 13.4019 2
      vertex -19.9271 13.1468 17
      vertex -20.5 13.4019 17
    endloop
  endfacet
  facet normal -0.406737 -0.913545 -0
    outer loop
      vertex -19.9271 13.1468 17
      vertex -20.5 13.4019 2
      vertex -19.9271 13.1468 2
    endloop
  endfacet
  facet normal 0.994522 0.104526 0
    outer loop
      vertex -16 -16 17
      vertex -16.0656 -15.3763 2
      vertex -16.0656 -15.3763 17
    endloop
  endfacet
  facet normal 0.994522 0.104526 0
    outer loop
      vertex -16.0656 -15.3763 2
      vertex -16 -16 17
      vertex -16 -16 2
    endloop
  endfacet
  facet normal -0.994522 0.104529 0
    outer loop
      vertex -22 -16 2
      vertex -21.9344 -15.3763 17
      vertex -21.9344 -15.3763 2
    endloop
  endfacet
  facet normal -0.994522 0.104529 0
    outer loop
      vertex -21.9344 -15.3763 17
      vertex -22 -16 2
      vertex -22 -16 17
    endloop
  endfacet
  facet normal 0 1 -0
    outer loop
      vertex -18.6864 -13.0164 2
      vertex -19.3136 -13.0164 17
      vertex -18.6864 -13.0164 17
    endloop
  endfacet
  facet normal 0 1 0
    outer loop
      vertex -19.3136 -13.0164 17
      vertex -18.6864 -13.0164 2
      vertex -19.3136 -13.0164 2
    endloop
  endfacet
  facet normal 0.587785 0.809017 -0
    outer loop
      vertex -16.9926 -13.7706 2
      vertex -17.5 -13.4019 17
      vertex -16.9926 -13.7706 17
    endloop
  endfacet
  facet normal 0.587785 0.809017 0
    outer loop
      vertex -17.5 -13.4019 17
      vertex -16.9926 -13.7706 2
      vertex -17.5 -13.4019 2
    endloop
  endfacet
  facet normal 0.406737 0.913545 -0
    outer loop
      vertex -17.5 -13.4019 2
      vertex -18.0729 -13.1468 17
      vertex -17.5 -13.4019 17
    endloop
  endfacet
  facet normal 0.406737 0.913545 0
    outer loop
      vertex -18.0729 -13.1468 17
      vertex -17.5 -13.4019 2
      vertex -18.0729 -13.1468 2
    endloop
  endfacet
  facet normal -0.743144 0.669132 0
    outer loop
      vertex -21.4271 -14.2366 2
      vertex -21.0074 -13.7706 17
      vertex -21.0074 -13.7706 2
    endloop
  endfacet
  facet normal -0.743144 0.669132 0
    outer loop
      vertex -21.0074 -13.7706 17
      vertex -21.4271 -14.2366 2
      vertex -21.4271 -14.2366 17
    endloop
  endfacet
  facet normal 0 0 1
    outer loop
      vertex -16.0656 -15.3763 17
      vertex -16.0656 -16.6237 17
      vertex -16 -16 17
    endloop
  endfacet
  facet normal 0 0 1
    outer loop
      vertex -16.2594 -14.7798 17
      vertex -16.0656 -16.6237 17
      vertex -16.0656 -15.3763 17
    endloop
  endfacet
  facet normal 0 0 1
    outer loop
      vertex -16.2594 -14.7798 17
      vertex -16.2594 -17.2202 17
      vertex -16.0656 -16.6237 17
    endloop
  endfacet
  facet normal 0 0 1
    outer loop
      vertex -16.5729 -14.2366 17
      vertex -16.2594 -17.2202 17
      vertex -16.2594 -14.7798 17
    endloop
  endfacet
  facet normal 0 0 1
    outer loop
      vertex -16.5729 -14.2366 17
      vertex -16.5729 -17.7634 17
      vertex -16.2594 -17.2202 17
    endloop
  endfacet
  facet normal 0 0 1
    outer loop
      vertex -16.9926 -13.7706 17
      vertex -16.5729 -17.7634 17
      vertex -16.5729 -14.2366 17
    endloop
  endfacet
  facet normal 0 0 1
    outer loop
      vertex -16.9926 -13.7706 17
      vertex -16.9926 -18.2294 17
      vertex -16.5729 -17.7634 17
    endloop
  endfacet
  facet normal 0 0 1
    outer loop
      vertex -17.5 -13.4019 17
      vertex -16.9926 -18.2294 17
      vertex -16.9926 -13.7706 17
    endloop
  endfacet
  facet normal 0 0 1
    outer loop
      vertex -17.5 -13.4019 17
      vertex -17.5 -18.5981 17
      vertex -16.9926 -18.2294 17
    endloop
  endfacet
  facet normal 0 0 1
    outer loop
      vertex -18.0729 -13.1468 17
      vertex -17.5 -18.5981 17
      vertex -17.5 -13.4019 17
    endloop
  endfacet
  facet normal 0 0 1
    outer loop
      vertex -18.0729 -13.1468 17
      vertex -18.0729 -18.8532 17
      vertex -17.5 -18.5981 17
    endloop
  endfacet
  facet normal 0 0 1
    outer loop
      vertex -18.6864 -13.0164 17
      vertex -18.0729 -18.8532 17
      vertex -18.0729 -13.1468 17
    endloop
  endfacet
  facet normal 0 0 1
    outer loop
      vertex -18.6864 -13.0164 17
      vertex -18.6864 -18.9836 17
      vertex -18.0729 -18.8532 17
    endloop
  endfacet
  facet normal -0 0 1
    outer loop
      vertex -19.3136 -13.0164 17
      vertex -18.6864 -18.9836 17
      vertex -18.6864 -13.0164 17
    endloop
  endfacet
  facet normal 0 0 1
    outer loop
      vertex -19.3136 -13.0164 17
      vertex -19.3136 -18.9836 17
      vertex -18.6864 -18.9836 17
    endloop
  endfacet
  facet normal -0 0 1
    outer loop
      vertex -19.9271 -13.1468 17
      vertex -19.3136 -18.9836 17
      vertex -19.3136 -13.0164 17
    endloop
  endfacet
  facet normal 0 0 1
    outer loop
      vertex -19.9271 -13.1468 17
      vertex -19.9271 -18.8532 17
      vertex -19.3136 -18.9836 17
    endloop
  endfacet
  facet normal -0 0 1
    outer loop
      vertex -20.5 -13.4019 17
      vertex -19.9271 -18.8532 17
      vertex -19.9271 -13.1468 17
    endloop
  endfacet
  facet normal 0 0 1
    outer loop
      vertex -20.5 -13.4019 17
      vertex -20.5 -18.5981 17
      vertex -19.9271 -18.8532 17
    endloop
  endfacet
  facet normal -0 0 1
    outer loop
      vertex -21.0074 -13.7706 17
      vertex -20.5 -18.5981 17
      vertex -20.5 -13.4019 17
    endloop
  endfacet
  facet normal 0 0 1
    outer loop
      vertex -21.0074 -13.7706 17
      vertex -21.0074 -18.2294 17
      vertex -20.5 -18.5981 17
    endloop
  endfacet
  facet normal -0 0 1
    outer loop
      vertex -21.4271 -14.2366 17
      vertex -21.0074 -18.2294 17
      vertex -21.0074 -13.7706 17
    endloop
  endfacet
  facet normal 0 0 1
    outer loop
      vertex -21.4271 -14.2366 17
      vertex -21.4271 -17.7634 17
      vertex -21.0074 -18.2294 17
    endloop
  endfacet
  facet normal -0 0 1
    outer loop
      vertex -21.7406 -14.7798 17
      vertex -21.4271 -17.7634 17
      vertex -21.4271 -14.2366 17
    endloop
  endfacet
  facet normal 0 0 1
    outer loop
      vertex -21.7406 -14.7798 17
      vertex -21.7406 -17.2202 17
      vertex -21.4271 -17.7634 17
    endloop
  endfacet
  facet normal -0 0 1
    outer loop
      vertex -21.9344 -15.3763 17
      vertex -21.7406 -17.2202 17
      vertex -21.7406 -14.7798 17
    endloop
  endfacet
  facet normal 0 0 1
    outer loop
      vertex -21.9344 -15.3763 17
      vertex -21.9344 -16.6237 17
      vertex -21.7406 -17.2202 17
    endloop
  endfacet
  facet normal 0 -0 1
    outer loop
      vertex -21.9344 -16.6237 17
      vertex -21.9344 -15.3763 17
      vertex -22 -16 17
    endloop
  endfacet
  facet normal -0.406737 0.913545 0
    outer loop
      vertex -19.9271 -13.1468 2
      vertex -20.5 -13.4019 17
      vertex -19.9271 -13.1468 17
    endloop
  endfacet
  facet normal -0.406737 0.913545 0
    outer loop
      vertex -20.5 -13.4019 17
      vertex -19.9271 -13.1468 2
      vertex -20.5 -13.4019 2
    endloop
  endfacet
  facet normal 0.866026 -0.5 0
    outer loop
      vertex -16.5729 -17.7634 17
      vertex -16.2594 -17.2202 2
      vertex -16.2594 -17.2202 17
    endloop
  endfacet
  facet normal 0.866026 -0.5 0
    outer loop
      vertex -16.2594 -17.2202 2
      vertex -16.5729 -17.7634 17
      vertex -16.5729 -17.7634 2
    endloop
  endfacet
  facet normal 0.866026 0.5 0
    outer loop
      vertex -16.2594 -14.7798 17
      vertex -16.5729 -14.2366 2
      vertex -16.5729 -14.2366 17
    endloop
  endfacet
  facet normal 0.866026 0.5 0
    outer loop
      vertex -16.5729 -14.2366 2
      vertex -16.2594 -14.7798 17
      vertex -16.2594 -14.7798 2
    endloop
  endfacet
  facet normal 0.951056 0.309019 0
    outer loop
      vertex -16.0656 -15.3763 17
      vertex -16.2594 -14.7798 2
      vertex -16.2594 -14.7798 17
    endloop
  endfacet
  facet normal 0.951056 0.309019 0
    outer loop
      vertex -16.2594 -14.7798 2
      vertex -16.0656 -15.3763 17
      vertex -16.0656 -15.3763 2
    endloop
  endfacet
  facet normal 0.743145 0.66913 0
    outer loop
      vertex -16.5729 -14.2366 17
      vertex -16.9926 -13.7706 2
      vertex -16.9926 -13.7706 17
    endloop
  endfacet
  facet normal 0.743145 0.66913 0
    outer loop
      vertex -16.9926 -13.7706 2
      vertex -16.5729 -14.2366 17
      vertex -16.5729 -14.2366 2
    endloop
  endfacet
  facet normal 0.207912 0.978148 -0
    outer loop
      vertex -18.0729 -13.1468 2
      vertex -18.6864 -13.0164 17
      vertex -18.0729 -13.1468 17
    endloop
  endfacet
  facet normal 0.207912 0.978148 0
    outer loop
      vertex -18.6864 -13.0164 17
      vertex -18.0729 -13.1468 2
      vertex -18.6864 -13.0164 2
    endloop
  endfacet
  facet normal -0.866027 0.499997 0
    outer loop
      vertex -21.7406 -14.7798 2
      vertex -21.4271 -14.2366 17
      vertex -21.4271 -14.2366 2
    endloop
  endfacet
  facet normal -0.866027 0.499997 0
    outer loop
      vertex -21.4271 -14.2366 17
      vertex -21.7406 -14.7798 2
      vertex -21.7406 -14.7798 17
    endloop
  endfacet
  facet normal -0.951056 0.309019 0
    outer loop
      vertex -21.9344 -15.3763 2
      vertex -21.7406 -14.7798 17
      vertex -21.7406 -14.7798 2
    endloop
  endfacet
  facet normal -0.951056 0.309019 0
    outer loop
      vertex -21.7406 -14.7798 17
      vertex -21.9344 -15.3763 2
      vertex -21.9344 -15.3763 17
    endloop
  endfacet
  facet normal -0.587786 0.809016 0
    outer loop
      vertex -20.5 -13.4019 2
      vertex -21.0074 -13.7706 17
      vertex -20.5 -13.4019 17
    endloop
  endfacet
  facet normal -0.587786 0.809016 0
    outer loop
      vertex -21.0074 -13.7706 17
      vertex -20.5 -13.4019 2
      vertex -21.0074 -13.7706 2
    endloop
  endfacet
  facet normal -0.207911 0.978148 0
    outer loop
      vertex -19.3136 -13.0164 2
      vertex -19.9271 -13.1468 17
      vertex -19.3136 -13.0164 17
    endloop
  endfacet
  facet normal -0.207911 0.978148 0
    outer loop
      vertex -19.9271 -13.1468 17
      vertex -19.3136 -13.0164 2
      vertex -19.9271 -13.1468 2
    endloop
  endfacet
  facet normal 0.994522 -0.104526 0
    outer loop
      vertex -16.0656 -16.6237 17
      vertex -16 -16 2
      vertex -16 -16 17
    endloop
  endfacet
  facet normal 0.994522 -0.104526 0
    outer loop
      vertex -16 -16 2
      vertex -16.0656 -16.6237 17
      vertex -16.0656 -16.6237 2
    endloop
  endfacet
  facet normal -0.207914 -0.978147 0
    outer loop
      vertex -19.9271 -18.8532 2
      vertex -19.3136 -18.9836 17
      vertex -19.9271 -18.8532 17
    endloop
  endfacet
  facet normal -0.207914 -0.978147 -0
    outer loop
      vertex -19.3136 -18.9836 17
      vertex -19.9271 -18.8532 2
      vertex -19.3136 -18.9836 2
    endloop
  endfacet
  facet normal -0.994522 -0.104529 0
    outer loop
      vertex -21.9344 -16.6237 2
      vertex -22 -16 17
      vertex -22 -16 2
    endloop
  endfacet
  facet normal -0.994522 -0.104529 0
    outer loop
      vertex -22 -16 17
      vertex -21.9344 -16.6237 2
      vertex -21.9344 -16.6237 17
    endloop
  endfacet
  facet normal 0.207915 -0.978147 0
    outer loop
      vertex -18.6864 -18.9836 2
      vertex -18.0729 -18.8532 17
      vertex -18.6864 -18.9836 17
    endloop
  endfacet
  facet normal 0.207915 -0.978147 0
    outer loop
      vertex -18.0729 -18.8532 17
      vertex -18.6864 -18.9836 2
      vertex -18.0729 -18.8532 2
    endloop
  endfacet
  facet normal 0.743146 -0.669129 0
    outer loop
      vertex -16.9926 -18.2294 17
      vertex -16.5729 -17.7634 2
      vertex -16.5729 -17.7634 17
    endloop
  endfacet
  facet normal 0.743146 -0.669129 0
    outer loop
      vertex -16.5729 -17.7634 2
      vertex -16.9926 -18.2294 17
      vertex -16.9926 -18.2294 2
    endloop
  endfacet
  facet normal 0.951056 -0.309018 0
    outer loop
      vertex -16.2594 -17.2202 17
      vertex -16.0656 -16.6237 2
      vertex -16.0656 -16.6237 17
    endloop
  endfacet
  facet normal 0.951056 -0.309018 0
    outer loop
      vertex -16.0656 -16.6237 2
      vertex -16.2594 -17.2202 17
      vertex -16.2594 -17.2202 2
    endloop
  endfacet
  facet normal -0.866027 -0.499997 0
    outer loop
      vertex -21.4271 -17.7634 2
      vertex -21.7406 -17.2202 17
      vertex -21.7406 -17.2202 2
    endloop
  endfacet
  facet normal -0.866027 -0.499997 0
    outer loop
      vertex -21.7406 -17.2202 17
      vertex -21.4271 -17.7634 2
      vertex -21.4271 -17.7634 17
    endloop
  endfacet
  facet normal -0.951056 -0.309018 0
    outer loop
      vertex -21.7406 -17.2202 2
      vertex -21.9344 -16.6237 17
      vertex -21.9344 -16.6237 2
    endloop
  endfacet
  facet normal -0.951056 -0.309018 0
    outer loop
      vertex -21.9344 -16.6237 17
      vertex -21.7406 -17.2202 2
      vertex -21.7406 -17.2202 17
    endloop
  endfacet
  facet normal 0.587784 -0.809018 0
    outer loop
      vertex -17.5 -18.5981 2
      vertex -16.9926 -18.2294 17
      vertex -17.5 -18.5981 17
    endloop
  endfacet
  facet normal 0.587784 -0.809018 0
    outer loop
      vertex -16.9926 -18.2294 17
      vertex -17.5 -18.5981 2
      vertex -16.9926 -18.2294 2
    endloop
  endfacet
  facet normal 0.406736 -0.913546 0
    outer loop
      vertex -18.0729 -18.8532 2
      vertex -17.5 -18.5981 17
      vertex -18.0729 -18.8532 17
    endloop
  endfacet
  facet normal 0.406736 -0.913546 0
    outer loop
      vertex -17.5 -18.5981 17
      vertex -18.0729 -18.8532 2
      vertex -17.5 -18.5981 2
    endloop
  endfacet
  facet normal 0 -1 0
    outer loop
      vertex -19.3136 -18.9836 2
      vertex -18.6864 -18.9836 17
      vertex -19.3136 -18.9836 17
    endloop
  endfacet
  facet normal 0 -1 -0
    outer loop
      vertex -18.6864 -18.9836 17
      vertex -19.3136 -18.9836 2
      vertex -18.6864 -18.9836 2
    endloop
  endfacet
  facet normal -0.406736 -0.913546 0
    outer loop
      vertex -20.5 -18.5981 2
      vertex -19.9271 -18.8532 17
      vertex -20.5 -18.5981 17
    endloop
  endfacet
  facet normal -0.406736 -0.913546 -0
    outer loop
      vertex -19.9271 -18.8532 17
      vertex -20.5 -18.5981 2
      vertex -19.9271 -18.8532 2
    endloop
  endfacet
  facet normal -0.743144 -0.669131 0
    outer loop
      vertex -21.0074 -18.2294 2
      vertex -21.4271 -17.7634 17
      vertex -21.4271 -17.7634 2
    endloop
  endfacet
  facet normal -0.743144 -0.669131 0
    outer loop
      vertex -21.4271 -17.7634 17
      vertex -21.0074 -18.2294 2
      vertex -21.0074 -18.2294 17
    endloop
  endfacet
  facet normal -0.587785 -0.809017 0
    outer loop
      vertex -21.0074 -18.2294 2
      vertex -20.5 -18.5981 17
      vertex -21.0074 -18.2294 17
    endloop
  endfacet
  facet normal -0.587785 -0.809017 -0
    outer loop
      vertex -20.5 -18.5981 17
      vertex -21.0074 -18.2294 2
      vertex -20.5 -18.5981 2
    endloop
  endfacet
endsolid OpenSCAD_Model
